<?xml version="1.0" encoding="utf-8"?>
<!-- Generator: Adobe Illustrator 24.0.2, SVG Export Plug-In . SVG Version: 6.00 Build 0)  -->
<svg version="1.1" id="Layer_1" xmlns="http://www.w3.org/2000/svg" xmlns:xlink="http://www.w3.org/1999/xlink" x="0px" y="0px"
	 viewBox="0 0 500 500" style="enable-background:new 0 0 500 500;" xml:space="preserve">
<path d="M77.6,258.7c-3.2,1.9-5.7,3.4-8.3,4.8c-4.2,2.3-7.1,0.6-7.2-4.2c-0.1-6.1,0.1-12.2-0.1-18.3c-0.1-3.5,1.2-5.5,4.1-7.2
	c24.3-14.2,48.6-28.5,72.9-42.7c34.9-20.5,69.9-41,104.8-61.6c3.5-2.1,6.3-2.2,9.9-0.1c59.4,34.8,118.8,69.4,178.3,104
	c3.5,2,5.1,4.2,4.8,8.3c-0.3,5.7,0,11.5-0.1,17.2c-0.1,5.5-3,7.1-7.8,4.3c-2.3-1.3-4.5-2.6-6.8-3.9c-0.2-0.1-0.5,0-1.2-0.1
	c0,1.4,0,2.9,0,4.3c0,56.4,0,112.8,0,169.2c0,6.7-0.7,7.4-7.6,7.4c-4.6,0-9.2,0-13.8,0c-5.2,0-6.4-1.2-6.4-6.3c0-18.3,0-36.7,0-55
	c0-44.2,0-88.4,0.1-132.5c0-3.1-1-4.6-3.6-6.1c-45.6-26.5-91.1-53-136.6-79.7c-3.2-1.9-5.3-1.7-8.4,0.1
	c-45.2,26.7-90.5,53.2-135.8,79.7c-2.5,1.5-3.3,3-3.3,5.8c0.1,62.1,0.1,124.3,0.1,186.4c0,6.7-0.9,7.6-7.4,7.6c-5.1,0-10.2,0-15.3,0
	c-3.4,0-5.1-1.6-5.2-5c0-1.2,0-2.5,0-3.7c0-55.9,0-111.8,0-167.7C77.6,262.2,77.6,260.7,77.6,258.7z M428.2,252.8
	c0-3.2-0.2-5.8,0-8.4c0.2-2.4-0.7-3.8-2.8-5c-57.7-33.6-115.4-67.2-173.1-101c-2.7-1.6-4.7-1.5-7.4,0.1
	c-36.1,21.3-72.2,42.4-108.3,63.6c-21.2,12.4-42.3,24.8-63.5,37.3c-1.1,0.7-2.6,1.9-2.7,3c-0.4,3.2-0.1,6.4-0.1,10.1
	c1.5-0.8,2.6-1.3,3.6-1.9c9.6-5.6,19.1-11.2,28.7-16.8c46.9-27.5,93.7-55,140.5-82.6c4-2.3,6.9-2.4,10.9-0.1
	c53.4,31.3,106.9,62.5,160.4,93.7C419,247.5,423.3,250,428.2,252.8z M412.4,431.4c0-1.8,0-3.3,0-4.8c0-32.4,0-64.9,0-97.3
	c0-24.1,0-48.1,0-72.2c0-1.3,0-3.2-0.8-3.8c-3-2.2-6.4-4-10-6.1c0,61.8,0,122.9,0,184.1C405.2,431.4,408.5,431.4,412.4,431.4z
	 M96.8,247.4c-2.6,1.5-4.6,3-6.7,3.9c-3.2,1.4-4,3.5-4,7c0.1,56.2,0.1,112.3,0.1,168.5c0,1.5,0,3,0,4.6c3.7,0,7.1,0,10.7,0
	C96.8,370,96.8,309,96.8,247.4z"/>
<path d="M335.9,399.1c-58.7,0-116.9,0-175.7,0c0,2,0,3.9,0,5.8c0,9.6,0,19.2,0,28.8c0,4.9-1.3,6.3-6.1,6.3c-7,0-14,0-21,0
	c-5,0-6.1-1.3-6.1-6.7c0-29.3,0-58.6,0-88c0-17.7-0.1-35.4,0-53.2c0.1-11,7.4-18.4,17.6-17.8c8.7,0.5,15.4,7.4,15.6,16.6
	c0.1,7.6,0,15.2,0,23.3c2.9,0,5.6,0,8.3,0c13.1,0,19.2,5.2,21.4,18.5c1.5,0,3.1,0,4.7,0c42.7,0,85.3,0,128,0
	c16.4,0,29.2,9.4,33.4,24.2c0.8,2.9,6,11.6,8.2,13.8c3.2,3.3,4.9,7.2,4.9,11.8c0.1,17.3,0.1,34.7,0,52c0,3.9-1.6,5.4-5.5,5.4
	c-7.4,0.1-14.7,0.1-22.1,0c-4.2,0-5.5-1.4-5.6-5.7c-0.1-10.4,0-20.7,0-31.1C335.9,402,335.9,400.6,335.9,399.1z M360.6,431.3
	c0-1.6,0-2.8,0-4.1c0-13.9,0-27.7,0-41.6c0-8.7-2.7-11.4-11.4-11.4c-58.1,0-116.3,0-174.4,0c-5.9,0-11.7,0-17.6,0
	c-3.9,0-5.4-1.3-5.4-5c-0.1-17.5-0.1-34.9-0.1-52.4c0-8.7,0.1-17.5-0.1-26.2c-0.1-4.7-3.6-7.8-7.9-7.8c-4.4,0-7.8,3.4-8,8.1
	c0,0.7,0,1.5,0,2.2c0,44.7,0,89.3,0,134c0,1.3,0,2.6,0,4c5.6,0,10.6,0,16.1,0c0-1.6,0-2.9,0-4.3c0-9.6,0-19.2,0-28.8
	c0-7.1,0.6-7.7,7.6-7.7c57.8,0,115.5,0,173.3,0c2.1,0,4.2,0,6.4,0c4,0.1,5.4,1.4,5.4,5.4c0.1,5.4,0,10.7,0,16.1c0,6.3,0,12.7,0,19.2
	C349.8,431.3,354.9,431.3,360.6,431.3z M348.6,365.6c0-0.9,0.1-1.7,0-2.4c-1.8-13.2-12.1-22-26-22c-52.9,0-105.8,0-158.6,0
	c-1.2,0-2.4,0.1-3.5,0.2c0,8.3,0,16.2,0,24.2C223.3,365.6,285.9,365.6,348.6,365.6z M181,332.6c-1-9.9-8.6-10.9-20.5-9.2
	c0,3.1,0,6.1,0,9.2C167.4,332.6,174.1,332.6,181,332.6z"/>
</svg>
