<?xml version="1.0" encoding="utf-8"?>
<!-- Generator: Adobe Illustrator 24.0.2, SVG Export Plug-In . SVG Version: 6.00 Build 0)  -->
<svg version="1.1" id="Layer_1" xmlns="http://www.w3.org/2000/svg" xmlns:xlink="http://www.w3.org/1999/xlink" x="0px" y="0px"
	 viewBox="0 0 500 500" style="enable-background:new 0 0 500 500;" xml:space="preserve">
<style type="text/css">
	.st0{fill:#8331A7;}
</style>
<path class="st0" d="M149.6,442c-1.7-0.5-3.3-1-5-1.5c-12.4-4.1-20.4-15.2-20.4-28.7c0-36.6,0-73.3,0-109.9
	c0-25.5,0.2-51.1-0.1-76.6c-0.1-11.4,2.7-21.1,12.2-28.6c-0.9-0.8-1.6-1.4-2.2-2.1c-6.3-5.8-9.8-12.9-9.8-21.4
	c-0.1-28.4-0.2-56.8,0-85.2c0.1-16.2,13.4-28.8,30.2-28.8c40.4-0.1,80.7,0,121.1,0c22.8,0,45.6,0,68.4,0c18.6,0,31.2,12.6,31.2,31.2
	c0.1,24.9-0.2,49.8,0.1,74.7c0.2,12.2-1.6,23.4-12.1,31.2c2.3,2.6,4.6,4.7,6.4,7.2c4,5.4,5.6,11.6,5.6,18.2c0,49.2,0,98.4-0.1,147.6
	c0,2.1-0.6,4.6-1.9,6.1c-2.7,3.2-8.2,1.5-9-2.7c-0.3-1.6-0.2-3.2-0.2-4.8c0-48.3,0-96.7,0-145c0-7.3-2-13.7-8.5-17.6
	c-2.9-1.7-6.5-2.4-9.8-3.1c-3.7-0.8-5.7-2.5-5.7-5.7c0-3.2,2-5.1,5.8-5.6c12.2-1.6,18.1-8.2,18.1-20.4c0-26.5,0-53.1,0-79.6
	c0-13.1-7.5-20.5-20.7-20.5c-62.4,0-124.8,0-187.2,0c-13.2,0-20.6,7.3-20.6,20.6c0,26.4,0,52.8,0,79.2c0,12.5,5.7,19.1,18.1,20.7
	c3.7,0.5,5.8,2.5,5.8,5.7c0,3.1-2,5.1-5.8,5.6c-12.3,1.6-18.2,8.3-18.2,20.8c0,62.3,0,124.6,0,186.9c0,13.5,7.3,20.9,20.7,20.9
	c62.4,0,124.8,0,187.2,0c13.2,0,20.5-7.4,20.6-20.6c0-4-0.1-8,0-12c0.1-4,2-6.2,5.4-6.3c3.3-0.1,5.7,2.1,5.8,5.9
	c0.1,5.7,0.3,11.5-0.2,17.2c-1.3,13.5-10.1,23.2-23.2,26.4c-0.6,0.1-1.1,0.4-1.7,0.7C283.2,442,216.4,442,149.6,442z"/>
<path class="st0" d="M226,345.2c-12,1.2-23.4,2.4-34.8,3.6c-10,1-20.1,2.2-30.1,3.2c-4.1,0.4-6.7-1.9-6.9-5.9
	c-0.1-2.5,0.1-5-0.1-7.5c-0.3-3.9,1.3-6.5,4.5-8.7c21.4-14.6,42.7-29.3,64.1-43.9c2.4-1.6,3.4-3.3,3.4-6.3
	c0.2-8.8,0.2-17.7,1.4-26.4c1-7.3,4.5-14,9.5-19.6c8-9.1,17.7-9,25.5,0.3c6.2,7.5,9.7,16.3,10.4,25.9c0.5,6.7,0.3,13.4,0.2,20.2
	c0,2.5,0.8,4,2.9,5.5c21.5,14.7,42.9,29.5,64.4,44.1c3.5,2.4,5.2,5.1,4.8,9.3c-0.2,2.4,0.1,4.7-0.1,7.1c-0.3,4.2-2.9,6.4-6.9,6
	c-19.7-2.1-39.4-4.2-59.1-6.2c-1.8-0.2-3.7-0.3-5.9-0.4c0,8.3-0.1,16.3,0.1,24.2c0,1,1.1,2.1,2,2.9c4.2,3.7,8.7,7,12.8,10.9
	c1.5,1.5,2.6,3.9,3,6c0.5,3.3,0.2,6.7,0.1,10.1c-0.1,5-2.8,7.2-7.8,6.3c-9.7-1.6-19.4-3.1-29.1-4.9c-7-1.4-13.5,1.1-20.3,2
	c-6.3,0.8-12.5,2.1-18.8,3.1c-4.2,0.7-7-1.7-7.2-6c-0.1-3.6-0.4-7.3,0.1-10.8c0.3-2,1.5-4.3,3-5.6c4.1-3.8,8.6-7.2,12.8-10.9
	c0.9-0.7,1.9-1.9,2-2.9C226,361.6,226,353.7,226,345.2z M255.2,387.3c5.1-3,6.8-7,6.7-11.9c0-37.3,0-74.7,0-112
	c0-8-2.9-15.1-7.5-21.5c-3.4-4.8-6.2-4.8-9.6,0c-4.8,6.7-7.6,14.2-7.6,22.6c0,29.8,0,59.5,0,89.3c0,7.2,0,14.4,0,21.7
	c0,4.9,1.7,8.9,6.5,11.7c0.1-1.6,0.2-2.8,0.2-4c0-5.7,0-11.5,0-17.2c0-4.5,2-6.9,5.5-7c3.7-0.1,5.7,2.3,5.7,7.1
	C255.2,372.8,255.2,379.6,255.2,387.3z M273.2,297.1c0,11.8,0.1,22.6-0.1,33.4c0,2.8,1,3.5,3.6,3.8c13.8,1.3,27.5,2.8,41.2,4.2
	c5.2,0.5,10.4,1,15.6,1.5c0.1-0.4,0.3-0.7,0.4-1.1C314,325.2,294,311.5,273.2,297.1z M225.8,297.4c-20.6,14.1-40.6,27.9-60.7,41.7
	c0.2,0.4,0.3,0.7,0.5,1.1c20-2.1,40-4.2,60.2-6.3C225.8,321.8,225.8,310,225.8,297.4z M231.4,391.8c-1.5-2.7-2.8-4.9-4.3-7.4
	c-2.5,3.2-7,4.3-8.1,9.4C223.5,393,227.2,392.4,231.4,391.8z M272.2,384.2c-1.6,2.8-2.8,5.1-4.2,7.5c4,0.6,7.8,1.3,12,1.9
	C279.4,388.4,274.7,387.7,272.2,384.2z"/>
<path class="st0" d="M183.7,130.3c-9.5,0-18.9,0-28.4,0c-5.3,0-7.2-1.9-7.2-7.2c0-11,0-21.9,0-32.9c0-5,2-7.1,7-7.1
	c19.1,0,38.1,0,57.2,0c5,0,6.9,2,6.9,7.1c0,11.1,0,22.2,0,33.3c0,4.9-1.9,6.8-6.7,6.8C202.9,130.3,193.3,130.3,183.7,130.3z
	 M159.6,94.5c0,8.3,0,16.2,0,24.3c16.2,0,32.1,0,48.2,0c0-8.2,0-16.2,0-24.3C191.6,94.5,175.7,94.5,159.6,94.5z"/>
<path class="st0" d="M339.5,275.7c-1.3,1.2-2.6,3.2-4.5,4c-2.5,1.2-4.9,0-6.3-2.5c-1.2-2.2-1.8-4.6-3.1-6.7c-0.6-1-2-2-3.2-2.2
	c-1.9-0.4-4,0.1-5.9-0.1c-6.8-0.9-11.9,0.4-13.7,8.2c-0.8,3.4-4.7,4.5-7.6,3.2c-2.8-1.3-3.9-4.4-2.5-7.7c5.8-13.7,11.6-27.4,17.8-41
	c0.8-1.7,3.4-3.5,5.3-3.6c1.7-0.1,4.3,1.8,5,3.4c6.1,13.6,11.9,27.3,17.7,41C338.8,272.7,339,273.7,339.5,275.7z M311.4,256.7
	c3.1,0,5.5,0,8.4,0c-1.5-3.3-2.7-6.1-4.3-9.6C314,250.7,312.8,253.5,311.4,256.7z"/>
<path class="st0" d="M273.4,100.4c-9.5,0-18.9,0-28.4,0c-4.4,0-7-2.1-7-5.5c-0.1-3.4,2.6-5.7,6.8-5.7c19.2,0,38.3,0,57.5,0
	c4.3,0,6.8,2.2,6.7,5.7c-0.1,3.5-2.5,5.5-7,5.5C292.6,100.4,283,100.4,273.4,100.4z"/>
<path class="st0" d="M324.5,124.3c-6.6,0-13.2,0-19.8,0c-4.3,0-6.8-2.2-6.7-5.7c0.1-3.3,2.6-5.5,6.7-5.5c13.3,0,26.6,0,39.9,0
	c4,0,6.5,2.3,6.5,5.6c0,3.4-2.4,5.6-6.5,5.6C337.9,124.4,331.2,124.3,324.5,124.3z"/>
<path class="st0" d="M261.7,124.3c-5.7,0-11.4,0-17.1,0c-4,0-6.5-2.3-6.5-5.6c0-3.3,2.6-5.6,6.6-5.6c11.3-0.1,22.6-0.1,33.9,0
	c4.1,0,6.5,2.1,6.6,5.5c0.1,3.6-2.3,5.7-6.7,5.7C272.9,124.4,267.3,124.3,261.7,124.3z"/>
<path class="st0" d="M159.4,160.6c0,3.9,0.1,7.7,0,11.6c-0.1,3.8-2.3,6-5.7,6c-3.1-0.1-5.4-2.3-5.5-5.9c-0.1-7.7-0.1-15.4,0-23.2
	c0-3.7,2.5-6.1,5.7-6.1c3.2,0.1,5.4,2.5,5.4,6.3C159.4,153.1,159.4,156.9,159.4,160.6z"/>
<path class="st0" d="M183.3,160.9c0,3.6,0,7.2,0,10.8c-0.1,4.1-2.2,6.5-5.6,6.4c-3.3,0-5.5-2.4-5.6-6.2c-0.1-7.6-0.1-15.2,0-22.8
	c0-3.7,2.5-6.2,5.7-6.1c3.2,0,5.4,2.5,5.5,6.3C183.4,153.2,183.3,157,183.3,160.9z"/>
<path class="st0" d="M201.3,160.8c0,3.9,0.1,7.7,0,11.6c-0.1,3.6-2.2,5.8-5.5,5.8c-3.2,0-5.6-2.1-5.7-5.6c-0.1-7.8-0.1-15.7,0-23.5
	c0.1-3.5,2.5-5.9,5.5-5.9c3.2-0.1,5.5,2.4,5.6,6.1C201.3,153,201.3,156.9,201.3,160.8z"/>
<path class="st0" d="M219.2,160.6c0,3.9,0.1,7.7,0,11.6c-0.1,3.7-2,5.9-5.2,6c-3.4,0.2-5.8-2.1-5.9-5.8c-0.1-7.8-0.1-15.7,0-23.5
	c0.1-3.4,2.6-5.8,5.7-5.7c3.1,0,5.4,2.4,5.4,5.9C219.3,152.8,219.2,156.7,219.2,160.6z"/>
<path class="st0" d="M249.2,160.7c0,3.9,0.1,7.7,0,11.6c-0.1,3.7-2.1,5.8-5.4,5.9c-3.2,0.1-5.7-2-5.8-5.6c-0.2-8-0.2-15.9,0-23.9
	c0.1-3.4,2.8-5.7,5.8-5.6c3.1,0.1,5.2,2.5,5.3,6C249.3,153,249.2,156.8,249.2,160.7z"/>
<path class="st0" d="M273.2,160.9c0,3.6,0.1,7.2,0,10.8c-0.1,4.2-2.1,6.5-5.6,6.4c-3.3,0-5.5-2.2-5.6-6.1c-0.1-7.6-0.1-15.2,0-22.8
	c0.1-3.7,2.5-6.2,5.7-6.2c3.2,0,5.4,2.5,5.5,6.2C273.3,153.2,273.2,157,273.2,160.9z"/>
<path class="st0" d="M291.2,160.8c0,3.9,0.1,7.7,0,11.6c-0.1,3.7-2.2,5.8-5.5,5.8c-3.2,0-5.6-2-5.6-5.7c-0.2-7.8-0.2-15.7,0-23.5
	c0.1-3.5,2.5-5.9,5.5-5.9c3.2-0.1,5.5,2.4,5.6,6.1C291.3,153.1,291.2,156.9,291.2,160.8z"/>
<path class="st0" d="M340,160.5c0-3.7-0.1-7.5,0-11.2c0.1-3.8,2.4-6.2,5.5-6.2c3.1,0,5.6,2.4,5.6,6.2c0.1,7.6,0.1,15.2,0,22.8
	c-0.1,3.9-2.2,6.1-5.6,6.1c-3.4,0-5.5-2.1-5.6-6.1C339.9,168.2,340,164.4,340,160.5z"/>
<path class="st0" d="M298,160.5c0-3.7-0.1-7.5,0-11.2c0.1-3.8,2.4-6.2,5.6-6.2c3.2,0,5.5,2.4,5.6,6.2c0.1,7.6,0.1,15.2,0,22.8
	c-0.1,4-2.2,6.1-5.5,6.1c-3.4,0-5.5-2.1-5.6-6.1C297.8,168.2,298,164.4,298,160.5z"/>
<path class="st0" d="M322,160.2c0-3.7-0.1-7.5,0-11.2c0.1-3.5,2.4-5.9,5.5-5.9c3-0.1,5.6,2.3,5.6,5.7c0.2,8,0.2,15.9,0,23.9
	c-0.1,3.3-2,5.3-5.4,5.4c-3.3,0.1-5.5-2-5.6-5.6C321.9,168.4,322,164.3,322,160.2C322,160.2,322,160.2,322,160.2z"/>
<path class="st0" d="M336.5,100.3c-2.9,0-5.7,0.1-8.6,0c-3.6-0.1-5.8-2.2-5.9-5.4c-0.1-3.2,2.1-5.7,5.6-5.7c6-0.2,12-0.2,17.9,0
	c3.4,0.1,5.7,2.7,5.6,5.8c-0.1,3-2.3,5.2-5.6,5.3C342.5,100.4,339.5,100.3,336.5,100.3z"/>
<path class="st0" d="M177.7,202.1c-2.1,0-4.2,0.1-6.3,0c-3-0.2-4.8-2.1-5.1-5c-0.3-2.9,1.2-5.5,4.2-5.7c4.9-0.4,9.9-0.4,14.8,0
	c2.8,0.2,4.2,2.6,4,5.5c-0.2,3-1.9,4.9-4.9,5.2C182.2,202.3,179.9,202.1,177.7,202.1C177.7,202.1,177.7,202.1,177.7,202.1z"/>
<path class="st0" d="M213.6,202.1c-2.1,0-4.2,0.1-6.3,0c-3.1-0.2-4.8-2.1-5.1-5c-0.3-2.9,1.2-5.5,4.2-5.7c4.9-0.4,9.9-0.4,14.8,0
	c2.9,0.3,4.3,2.8,4,5.8c-0.3,2.8-2,4.6-4.8,4.8C218.1,202.3,215.8,202.1,213.6,202.1C213.6,202.1,213.6,202.1,213.6,202.1z"/>
<path class="st0" d="M249.7,202.1c-2.2,0-4.5,0.2-6.7,0c-3.1-0.3-4.7-2.3-4.8-5.2c-0.1-2.7,1.3-5.2,4.1-5.4c4.9-0.4,9.9-0.4,14.8,0
	c2.9,0.3,4.3,2.8,4,5.8c-0.2,2.8-1.9,4.6-4.7,4.9C254.1,202.3,251.9,202.1,249.7,202.1z"/>
<path class="st0" d="M285.6,202.1c-2.1,0-4.2,0.1-6.3,0c-3.2-0.2-5-2.2-5.2-5.3c-0.1-3,1.5-5.3,4.4-5.5c4.7-0.4,9.4-0.4,14.1,0
	c2.9,0.2,4.5,2.5,4.4,5.5c-0.1,3.2-1.9,5.1-5.1,5.3C289.8,202.3,287.7,202.1,285.6,202.1z"/>
<path class="st0" d="M321.6,202.1c-2.2,0-4.5,0.2-6.7,0c-3-0.3-4.7-2.2-4.8-5.2c-0.1-3,1.4-5.3,4.3-5.6c4.7-0.4,9.4-0.4,14.1,0
	c3.1,0.3,4.7,2.7,4.5,5.8c-0.2,3-2,4.8-5.1,5C325.9,202.3,323.7,202.1,321.6,202.1C321.6,202.1,321.6,202.1,321.6,202.1z"/>
</svg>
