<?xml version="1.0" encoding="utf-8"?>
<!-- Generator: Adobe Illustrator 24.0.2, SVG Export Plug-In . SVG Version: 6.00 Build 0)  -->
<svg version="1.1" id="Layer_1" xmlns="http://www.w3.org/2000/svg" xmlns:xlink="http://www.w3.org/1999/xlink" x="0px" y="0px"
	 viewBox="0 0 500 500" style="enable-background:new 0 0 500 500;" xml:space="preserve">
<style type="text/css">
	.st0{fill:#8331A7;}
</style>
<g>
	<path class="st0" d="M277.5,425.2c-7.2-2.3-12.4-6.5-13.9-14.2c-0.3-1.5-0.4-3.2-0.4-4.7c0-55.1,0-110.2,0-165.3
		c0-11.8,7.2-19,19.1-19c41.5,0,83,0,124.5,0c11.9,0,19,7.2,19,19.1c0,54.3,0,108.6,0,162.9c0,12.4-2.9,16.7-14.3,21.3
		C366.9,425.2,322.2,425.2,277.5,425.2z M274.9,323.5c0,27.2,0,54.4,0,81.6c0,6.7,1.7,8.4,8.5,8.4c40.8,0,81.7,0,122.5,0
		c6.8,0,8.5-1.7,8.5-8.4c0-54.4,0-108.8,0-163.3c0-6.7-1.7-8.4-8.5-8.4c-40.8,0-81.7,0-122.5,0c-6.8,0-8.5,1.7-8.5,8.4
		C274.9,269.1,274.9,296.3,274.9,323.5z"/>
	<path class="st0" d="M77.4,304.7c1.1-7,1.7-14.2,3.5-21c2.5-9.3,5.8-18.3,9-27.3c1.6-4.4,4.8-5.8,8.2-4.4c3.4,1.4,4.3,4.8,2.4,9.2
		c-12.2,27.3-14.5,55.7-8.2,84.7c7,32.5,27.2,52.8,58.9,61.6c30.6,8.5,61.6,8.1,92.5,1.2c4.5-1,7.4,0.4,8.4,4
		c0.9,3.5-1.2,6.4-5.7,7.2c-9.9,1.7-19.9,3.2-29.8,4.7c-1,0.2-2,0.4-3,0.6c-8.8,0-17.7,0-26.5,0c-0.9-0.2-1.8-0.4-2.6-0.5
		c-11.8-1.9-24-2.7-35.5-5.9C110.4,408.4,87.2,383.4,80,344c-1.1-6-1.7-12.1-2.6-18.1C77.4,318.8,77.4,311.8,77.4,304.7z"/>
	<path class="st0" d="M127.9,201.7c-8.7-7.2-11.6-15.1-8.7-23.8c2.9-8.9,9.7-13.3,22.2-14.1c-0.8-1.3-1.5-2.4-2.2-3.4
		c-9.5-13.9-18.4-28.1-24.6-43.7c-3.1-7.7-5.9-15.5-4.5-24.1c1.5-9.3,9-13.7,17.8-10.3c3.6,1.4,6.9,3.3,10.2,5.3
		c5.6,3.3,11.6,5.6,18.1,6.4c7.1,0.9,13.2-1.3,18.3-6.2c15.4-14.6,34.5-14.7,49.7-0.1c7,6.6,15.1,8,23.9,5.2
		c4.4-1.4,8.6-3.5,12.7-5.5c3.1-1.4,5.9-3.4,9-4.7c10.4-4.4,19,1.3,19.3,12.6c0.2,7.7-2.1,14.8-5,21.7
		c-6.3,15.5-15.1,29.6-24.5,43.4c-0.7,1-1.3,2-2.1,3.2c2.7,0.3,5.2,0.4,7.6,1c9.3,2.1,15.9,10.8,15.6,20.1
		c-0.4,9.8-7.3,17.9-16.8,19.4c-2.1,0.3-4.3,0.5-6.4,0.5c-37.4,0-74.8,0-112.3,0c-2.4,0-4.3,0.5-5.9,2.4c-6.7,8-13.6,15.8-20.4,23.7
		c-2.1,2.5-4.5,3.5-7.5,2.2c-2.6-1.1-3.8-3.3-3.3-6.1c0.3-1.5,1.2-2.9,2.2-4.1C116.1,215.8,121.9,208.8,127.9,201.7z M228.5,163.9
		c2.8,0,5.3-0.3,7.7,0.1c5,0.8,7.9-1.3,10.7-5.4c10.4-15.5,20.5-31,27.5-48.3c1.7-4.3,2.8-8.9,3.5-13.4c0.6-3.7-0.9-4.5-4.3-3.1
		c-2.1,0.9-4,2.1-6,3.1c-5,2.4-9.9,5.2-15.1,6.8c-13.5,4.3-25.9,2.3-36.5-7.8c-10.5-10.1-22.8-10-33.5,0.2
		c-4.4,4.2-9.5,7.3-15.5,8.7c-12.4,2.9-23.5-0.9-34.1-6.8c-2.6-1.4-5.1-3-7.8-4.2c-3.4-1.5-4.7-0.8-4.2,2.8
		c0.6,4.5,1.6,9.2,3.3,13.4c7.5,19,18.7,35.9,30.5,52.4c0.5,0.7,1.5,1.5,2.4,1.5c4.3,0.1,8.6,0.1,13.2,0.1c0-1.5,0-2.8,0-4
		c0-7.1,0-14.3,0-21.4c0-0.8,0-1.6,0-2.4c0.1-4.5,2.1-6.9,5.7-7c3.7,0,5.9,2.5,5.9,7.1c0.1,7.9,0,15.9,0,23.8c0,1.2,0.1,2.4,0.2,3.6
		c11.7,0,23.1,0,34.7,0c0-1.6,0-3,0-4.3c0-8.2-0.1-16.3,0.1-24.5c0-3.4,2.3-5.6,5.5-5.7c3.1-0.1,5.6,2,6,5.3c0.1,1,0.1,2,0.1,3.1
		C228.5,146.1,228.5,154.7,228.5,163.9z M199.2,175.5c-19.3,0-38.5,0-57.8,0c-1,0-2,0-3.1,0c-4.9,0.3-8.4,3.7-8.6,8.4
		c-0.1,4.7,3,8.3,7.9,9c1.1,0.1,2.3,0.1,3.4,0.1c38.9,0,77.8,0,116.6,0c1.7,0,3.4-0.1,5-0.5c3.2-0.8,5.2-3,6-6.3
		c1.4-5.8-2.8-10.7-9.4-10.7C239.4,175.4,219.3,175.5,199.2,175.5z"/>
	<path class="st0" d="M193.5,366.5c0-17.3,0-34.4,0-51.6c-3.7-0.9-7.3-1.5-10.8-2.7c-13.3-4.3-23.7-12-28.2-25.8
		c-4.5-13.6,1.1-28,13.8-37.2c6.7-4.9,14.2-7.9,22.5-9c2.3-0.3,3.3-1.1,3-3.4c-0.1-1.1-0.1-2.3,0-3.4c0.2-3.2,2.3-5.4,5.3-5.6
		c3.1-0.2,5.7,1.9,6.1,5.1c0.3,2.1,0,4.3,0,6.5c3.4,0.7,6.6,1.2,9.6,2.1c13.9,4.3,24.9,12,29.6,26.5c0.9,2.6,1.2,5.5,1.4,8.3
		c0.2,3.8-2.1,6.4-5.4,6.5c-3.1,0.2-5.5-2.1-6.1-5.7c-2.2-14.5-13.4-24.7-28.1-25.6c-0.1,0-0.2,0-0.6,0.1c0,17.1,0,34.3,0,51.6
		c3,0.7,6.2,1.2,9.2,2.1c9.8,2.8,18.1,7.8,24.3,15.9c11.8,15.6,8,35.8-8.9,47.9c-7.3,5.3-15.6,8-24.6,9.2
		c-0.8,4.7,1.5,11.8-6.3,11.7c-7.3-0.1-5.1-6.9-5.6-10.8c-6.6-2.3-13.2-3.8-19-6.7c-11.3-5.6-19.1-14.4-21.3-27.3
		c-0.2-1.4-0.3-2.9-0.3-4.4c0.1-3.2,2.3-5.4,5.3-5.6c3.2-0.2,6.2,1.8,6.1,5C163.9,354.7,179.8,365.5,193.5,366.5z M193.5,251.4
		c-10.9,1.8-20,5.8-25.8,15.1c-3.4,5.5-4.1,11.4-1.8,17.6c3.6,9.8,16.8,18.7,27.6,18.4C193.5,285.6,193.5,268.8,193.5,251.4z
		 M205.5,315.7c0,16.9,0,33.8,0,50.8c8.4-0.8,17-4.8,22.2-10.3c5.7-6.1,8-13.1,5.5-21.3C230.1,324.7,216.6,315.4,205.5,315.7z"/>
	<path class="st0" d="M344.4,297.4c-12.9,0-25.9,0-38.8,0c-9,0-13.2-4.3-13.3-13.4c0-6.9-0.1-13.8,0-20.7
		c0.1-7.6,4.8-12.2,12.4-12.2c26.5,0,53.1,0,79.6,0c7.6,0,12.3,4.6,12.4,12.2c0.1,7.4,0.1,14.7,0,22.1c-0.1,7.4-4.7,12-12.2,12
		C371.2,297.4,357.8,297.4,344.4,297.4z M304.3,262.7c0,7.8,0,15.4,0,22.9c27.1,0,53.9,0,80.7,0c0-7.7,0-15.2,0-22.9
		C358,262.7,331.2,262.7,304.3,262.7z"/>
	<path class="st0" d="M306.7,349.7c-2.7,0-5.4,0.1-8.2,0c-3.8-0.1-6.1-2.4-6.1-5.8c0-3.3,2.3-5.6,5.9-5.7c5.7-0.1,11.3-0.1,17,0
		c3.6,0.1,5.9,2.4,5.9,5.7c0.1,3.4-2.3,5.8-6.1,5.9C312.4,349.7,309.5,349.7,306.7,349.7z"/>
	<path class="st0" d="M347.7,326.5c-2.8,0-5.7,0.1-8.5,0c-3.8-0.1-6.2-2.5-6.2-5.9c0-3.4,2.5-5.6,6.3-5.7c5.4-0.1,10.9-0.1,16.3,0
		c3.9,0,6.3,2.3,6.3,5.6c0.1,3.5-2.5,5.8-6.4,5.9C352.9,326.6,350.3,326.5,347.7,326.5z"/>
	<path class="st0" d="M388,372.9c-2.8,0-5.7,0.1-8.5,0c-3.3-0.1-5.7-2.4-5.8-5.5c-0.2-3.1,2.3-5.9,5.7-6c5.9-0.2,11.8-0.2,17.7,0
		c3.4,0.1,5.8,2.9,5.7,6c-0.2,3-2.5,5.3-5.8,5.5C393.9,373,391,372.9,388,372.9z"/>
	<path class="st0" d="M388,396.1c-2.8,0-5.7,0.1-8.5,0c-3.3-0.1-5.7-2.4-5.8-5.5c-0.1-3,2.1-5.8,5.4-5.9c6.1-0.2,12.3-0.2,18.4,0
		c3.2,0.1,5.5,3,5.3,6c-0.2,3.1-2.5,5.3-5.9,5.4C393.9,396.2,390.9,396.1,388,396.1z"/>
	<path class="st0" d="M388.4,314.9c2.8,0,5.7-0.1,8.5,0c3.3,0.1,5.7,2.5,5.8,5.5c0.1,3.1-2.3,5.9-5.7,6c-5.9,0.2-11.8,0.2-17.7,0
		c-3.2-0.1-5.6-2.7-5.6-5.7c0-3.1,2.5-5.6,5.9-5.8C382.5,314.8,385.4,314.9,388.4,314.9z"/>
	<path class="st0" d="M306.7,326.5c-2.7,0-5.4,0.1-8.2,0c-3.8-0.1-6.1-2.5-6.1-5.9c0-3.4,2.4-5.6,6.3-5.7c5.4-0.1,10.9-0.1,16.3,0
		c3.9,0,6.2,2.3,6.2,5.7c0,3.4-2.3,5.7-6.1,5.9C312.3,326.6,309.5,326.5,306.7,326.5z"/>
	<path class="st0" d="M347.6,338.1c2.8,0,5.7-0.1,8.5,0c3.5,0.1,5.9,2.5,5.9,5.8c0,3.2-2.3,5.7-5.9,5.8c-5.8,0.1-11.6,0.1-17.3,0
		c-3.4-0.1-5.6-2.4-5.7-5.6c-0.1-3.3,2.2-5.8,5.7-5.9C341.7,338,344.6,338.1,347.6,338.1z"/>
	<path class="st0" d="M388.1,349.7c-2.8,0-5.6,0.1-8.5,0c-3.4-0.1-5.9-2.6-5.9-5.7c0-3.1,2.4-5.7,5.8-5.8c5.8-0.1,11.5-0.1,17.3,0
		c3.4,0.1,5.9,2.6,5.9,5.7c0,3.2-2.5,5.7-6.2,5.8c-0.2,0-0.5,0-0.7,0C393.2,349.7,390.6,349.7,388.1,349.7
		C388.1,349.7,388.1,349.7,388.1,349.7z"/>
	<path class="st0" d="M347.5,372.9c-2.8,0-5.7,0.1-8.5,0c-3.6-0.1-5.9-2.4-5.9-5.7c0-3.2,2.3-5.8,5.8-5.8c5.8-0.1,11.6-0.1,17.3,0
		c3.5,0.1,5.8,2.7,5.8,5.9c-0.1,3.3-2.4,5.5-6,5.6C353.2,372.9,350.3,372.9,347.5,372.9z"/>
	<path class="st0" d="M347.2,396.1c-2.8,0-5.7,0.1-8.5,0c-3.4-0.2-5.6-2.5-5.7-5.6c-0.1-3.1,2.1-5.7,5.4-5.9c6-0.2,12-0.2,18,0
		c3.3,0.1,5.5,2.7,5.5,5.8c0,3.3-2.3,5.5-5.9,5.7C353.1,396.2,350.2,396.1,347.2,396.1C347.2,396.1,347.2,396.1,347.2,396.1z"/>
	<path class="st0" d="M306.7,372.9c-2.8,0-5.7,0.1-8.5,0c-3.5-0.1-5.7-2.3-5.8-5.4c-0.2-3.3,2-6,5.5-6.1c5.9-0.2,11.8-0.2,17.7,0
		c3.5,0.1,5.7,2.7,5.6,6c-0.1,3.3-2.4,5.4-6,5.5C312.4,372.9,309.6,372.9,306.7,372.9z"/>
	<path class="st0" d="M306.6,396.1c-2.8,0-5.7,0.1-8.5,0c-3.4-0.2-5.6-2.3-5.7-5.5c-0.1-3.1,2-5.8,5.3-5.9c6-0.2,12-0.2,18,0
		c3.5,0.1,5.7,2.8,5.5,6.1c-0.1,3.2-2.3,5.3-5.8,5.4C312.5,396.2,309.6,396.1,306.6,396.1z"/>
</g>
</svg>
