<?xml version="1.0" encoding="utf-8"?>
<!-- Generator: Adobe Illustrator 24.0.2, SVG Export Plug-In . SVG Version: 6.00 Build 0)  -->
<svg version="1.1" id="Layer_1" xmlns="http://www.w3.org/2000/svg" xmlns:xlink="http://www.w3.org/1999/xlink" x="0px" y="0px"
	 viewBox="0 0 500 500" style="enable-background:new 0 0 500 500;" xml:space="preserve">
<path d="M441,386.9c-2.1,6.1-5.4,11.1-11.5,14c-0.7,0.4-1.2,2-1.2,3c-0.1,5.7,0,11.5-0.1,17.2c-0.1,11.4-8.3,19.6-19.7,19.6
	c-14.6,0.1-29.2,0.1-43.8,0c-11.4-0.1-19.5-8.3-19.6-19.7c-0.1-6.1,0-12.2,0-18.4c-64,0-127.6,0-191.7,0c0,5.5,0,10.9,0,16.3
	c0,14.1-7.6,21.8-21.7,21.8c-13.6,0-27.2,0-40.8,0c-12.6,0-20.6-8-20.6-20.5c0-5.5,0.1-11-0.1-16.5c0-1.2-1-2.7-2-3.3
	c-7.2-4.1-10.7-10.1-10.7-18.4c0-27.2,0.1-54.4,0-81.6c0-6.2,2-11.4,6.5-15.7c6.6-6.5,13.1-13,19.6-19.6c0.9-0.9,1.7-1.8,3.1-3.3
	c-3.8,0-6.8,0-9.9,0c-10.9-0.2-19.3-8.6-19.2-19.3c0.1-10.5,8.4-18.8,19.1-19c3.2-0.1,6.5,0.1,9.7,0c6.6-0.4,12.3,1.3,17.4,6.5
	c0.6-1.5,1.1-2.7,1.5-3.9c3.5-10.4,6.9-20.8,10.4-31.2c4.8-14,15.9-22.3,30.7-22.4c68.5-0.1,137-0.1,205.5,0
	c14.8,0,25.8,8.3,30.7,22.4c3.5,10.2,6.9,20.5,10.3,30.8c0.4,1.3,0.9,2.5,1.5,4.2c9.1-9.3,20.4-6.6,31-5.9
	c6.9,0.5,11.6,5.4,14.2,11.9c0.4,0.9,0.8,1.7,1.2,2.6c0,2.5,0,5,0,7.5c-4.2,14.6-15.3,17.1-29.6,15.5c7.4,7.4,13.6,13.8,20.1,20
	c4.2,4,7.9,8.2,9.6,14C441,326,441,356.4,441,386.9z M249.2,389.7c56.8,0,113.5,0,170.3,0c6.4,0,8.6-2.2,8.6-8.5
	c0-26.7,0-53.4,0.1-80.1c0-3.2-1-5.7-3.3-8c-9.9-9.7-19.6-19.6-29.5-29.3c-1.2-1.1-3.2-2-4.8-2c-94.2-0.1-188.4-0.1-282.6,0
	c-1.7,0-3.9,0.9-5.1,2.2c-9.8,9.6-19.4,19.4-29.2,29c-2.4,2.4-3.4,4.9-3.4,8.3c0.1,26.2,0,52.4,0,78.6c0,7.9,1.8,9.7,9.7,9.7
	C136.4,389.7,192.8,389.7,249.2,389.7z M387.1,249c-0.3-1.2-0.5-2.1-0.8-3c-5.2-15.6-10.4-31.2-15.6-46.8
	c-3.1-9.1-9.5-13.8-19.1-13.8c-68.1,0-136.3,0-204.4,0c-9.8,0-16.2,4.7-19.3,14c-5.3,15.6-10.4,31.2-15.6,46.8
	c-0.3,0.9-0.5,1.8-0.7,2.8C203.5,249,295.2,249,387.1,249z M83.1,402.7c0,6.6-0.1,12.7,0,18.7c0.1,4,2.6,6.5,6.7,6.6
	c14.7,0.1,29.4,0.1,44.1,0c3.6,0,6.3-2,6.5-5.5c0.4-6.5,0.1-13.1,0.1-19.8C121.4,402.7,102.5,402.7,83.1,402.7z M357.9,402.6
	c0,6.7-0.1,13.1,0.1,19.4c0.1,3.5,2.8,5.9,6.4,6c14.8,0.1,29.7,0.1,44.5,0c3.2,0,5.9-1.8,6.1-4.9c0.4-6.8,0.1-13.6,0.1-20.4
	C396,402.6,377.2,402.6,357.9,402.6z M95.9,249.1c0-2.3,0-4,0-5.8c-0.1-4.5-2.4-6.8-7-6.9c-4.1-0.1-8.2-0.1-12.3,0
	c-3.5,0.1-6.1,3-6.1,6.3c0,3.2,2.4,6.2,5.7,6.3C82.6,249.2,89,249.1,95.9,249.1z M402.7,249.1c6.8,0,13.2,0.2,19.7-0.1
	c3.3-0.1,5.8-3.1,5.8-6.3c0-3.3-2.6-6.2-6.1-6.3c-4.5-0.2-9-0.2-13.5,0c-3.4,0.2-5.5,2.2-5.8,5.7
	C402.6,244.3,402.7,246.6,402.7,249.1z"/>
<path d="M202.1,57.5c5.9,2.3,11.1,5.5,13.7,11.8c0.2,0.5,1.4,0.9,2.2,0.9c1.5,0.1,3,0.1,4.5,0c6.9-0.4,12.9,1.8,17.3,7.2
	c3.7,4.5,8,5.8,13.7,5.7c34.6-0.2,69.1-0.1,103.7-0.2c4.7,0,8.8,1.1,12.5,4.1c4.6,3.6,9.4,7,14,10.6c8.1,6.2,8.3,15.5,0.3,21.7
	c-5.2,4.1-10.4,8.2-15.9,11.8c-2.4,1.6-5.5,2-8.3,2.9c-0.2,0.1-0.5,0-0.7,0c-10.3,0.7-20.2,0.6-26.4-10.9
	c-5.9,8.3-13,11.3-22.5,11.2c-9.5-0.1-16.8-2.5-22.7-11.4c-2.1,2.6-3.7,4.7-5.5,6.6c-2.8,3.2-6.4,4.5-10.7,4.5c-7-0.1-14,0.1-21-0.1
	c-3.2,0-5.9,0.7-8,3.3c-5.9,7.4-13.6,10.6-23.1,9.6c-2.1-0.2-3.3,0.5-4.3,2.5c-3.5,6.6-9.2,10.2-16.7,10.2
	c-19.6,0.2-39.2,0.1-58.8,0c-5.5,0-10.2-2.1-14-6.1c-3.6-3.7-7.2-7.3-10.9-10.8c-4-4-6-8.8-6-14.4c0-13.1,0-26.2,0-39.3
	c0-5.6,1.9-10.5,5.9-14.5c3.7-3.7,7.2-7.7,11.2-11c2.9-2.4,6.4-4,9.7-6C157.7,57.5,179.9,57.5,202.1,57.5z M204.5,108.6
	c0-10.1,0-20.2,0-30.3c0-5.8-2.2-8-7.8-8c-18.6,0-37.2-0.1-55.8,0.1c-2.2,0-4.8,1.2-6.6,2.7c-3.5,2.9-6.9,6.2-9.8,9.8
	c-1.6,2-2.9,4.8-3,7.2c-0.3,12.3-0.3,24.7,0,37c0.1,2.5,1.4,5.3,3,7.2c2.8,3.5,6,6.7,9.5,9.5c1.9,1.5,4.5,2.9,6.9,2.9
	c18.6,0.2,37.2,0.2,55.8,0.1c5.8,0,7.8-2.2,7.8-8C204.5,128.8,204.5,118.7,204.5,108.6z M217.6,83.4c0,16.8,0,33.6,0,50.3
	c6.2,1.2,11.2,0.3,15.3-4.8c4.6-5.8,10.9-7.9,18.2-7.7c4.9,0.2,9.8-0.3,14.6,0.1c4.8,0.4,8.5-0.8,11.3-4.7c0.2-0.3,0.5-0.5,0.8-0.8
	c6.3-6.2,13.4-6.2,19.8-0.1c1.9,1.9,3.9,5,6.1,5.2c6.7,0.6,13.5,1.9,19-4.9c5.5-6.9,13.3-6.4,19.6-0.3c1,1,1.9,1.9,2.9,2.9
	c2.7,2.7,12.9,4,16,1.8c5.3-3.7,10.4-7.7,16-11.9c-4.8-3.6-9.3-6.8-13.6-10.3c-2.4-2-4.8-2.6-7.9-2.6c-35.1,0.1-70.1,0-105.2,0.1
	c-6.9,0-12.9-1.9-17.3-7.2C229,83.6,224.1,82,217.6,83.4z"/>
<path d="M249.3,300.2c22.6,0,45.1,0,67.7,0c7.1,0,12.1,3.1,14.3,8.7c2.2,5.4,0.9,11.3-3.7,15.3c-7,6-14,12.1-21.3,17.6
	c-2.4,1.8-5.9,3-9,3c-32,0.2-64.1,0.2-96.1,0c-3.3,0-7.1-1.7-9.8-3.7c-6.7-5-12.9-10.5-19.3-15.9c-5.4-4.5-7.1-10.2-5-16
	c2.1-5.7,7.2-9,14.1-9C203.9,300.1,226.6,300.2,249.3,300.2z M319.7,314.2c-0.1-0.3-0.3-0.6-0.4-0.9c-46.7,0-93.4,0-141.1,0
	c1.6,1.5,2.4,2.4,3.3,3.2c5.5,4.6,10.8,9.2,16.5,13.6c1.5,1.2,3.7,2,5.6,2c25.8,0.1,51.6,0.1,77.5,0.1c5.7,0,12,1.3,17.1-0.6
	c5.1-1.9,9-6.9,13.4-10.5C314.3,318.8,317,316.5,319.7,314.2z"/>
<path d="M377.6,344.9c-8.1,0-16.2,0-24.3,0c-6.6,0-11.6-3.4-13.7-9.1c-2-5.7-0.3-11.4,4.8-15.7c6.4-5.4,12.9-10.6,19.3-16
	c3.2-2.7,6.8-3.9,11-3.9c9,0,18-0.1,27,0c8.5,0.1,13.7,5.4,13.8,13.8c0.1,5.9,0.1,11.7,0,17.6c-0.1,8-5.5,13.3-13.5,13.3
	C393.8,345,385.7,344.9,377.6,344.9z M402.5,313c-9.7,0-19.1,0-28.6,0.1c-0.9,0-1.8,0.7-2.6,1.3c-6.2,5.1-12.3,10.1-18.4,15.3
	c-0.6,0.5-0.8,1.3-1.5,2.3c17.3,0,34.1,0,51,0C402.5,325.7,402.5,319.7,402.5,313z"/>
<path d="M121.1,344.9c-8.1,0-16.2,0-24.3,0c-8.3-0.1-13.5-5.3-13.6-13.6c-0.1-5.9-0.1-11.7,0-17.6c0.1-8.1,5.3-13.4,13.3-13.5
	c9.4-0.1,18.7-0.3,28.1,0.1c3.4,0.2,7.2,1.6,9.9,3.6c6.9,5.1,13.4,10.8,20,16.4c4.9,4.1,6.6,9.9,4.6,15.4c-2,5.7-7,9.1-13.6,9.2
	C137.3,345,129.2,344.9,121.1,344.9z M96.2,313c0,6.7,0,12.8,0,18.9c17,0,33.7,0,50.9,0c-0.5-0.9-0.6-1.6-1-1.9
	c-6.4-5.4-12.8-10.7-19.3-16c-0.6-0.5-1.5-1-2.3-1C115.1,312.9,105.8,313,96.2,313z"/>
<path d="M249.3,364.2c18.7,0,37.4,0,56.1,0c4.7,0,7.2,1.9,7.6,5.5c0.4,3.5-1.6,6.4-5.2,7c-1.3,0.3-2.7,0.2-4.1,0.2
	c-36.3,0-72.6,0-108.9,0c-0.9,0-1.7,0-2.6,0c-4.2-0.3-6.7-2.8-6.7-6.5c0-3.8,2.5-6.2,6.9-6.2C211.4,364.1,230.3,364.2,249.3,364.2z"
	/>
<path d="M118.7,364.2c7,0,13.9,0,20.9,0c4.7,0,7.3,2.3,7.4,6.1c0.1,4-2.6,6.6-7.3,6.6c-14.2,0.1-28.4,0.1-42.6,0
	c-4.7,0-7.4-2.6-7.4-6.6c0.1-3.9,2.6-6.1,7.3-6.2C104.2,364.1,111.4,364.2,118.7,364.2z"/>
<path d="M380.4,364.2c7,0,13.9,0,20.9,0c4.9,0,7.5,2.3,7.5,6.3c0,4-2.7,6.4-7.5,6.4c-14.1,0.1-28.1,0.1-42.2,0
	c-4.8,0-7.5-2.5-7.6-6.4c0-3.9,2.7-6.3,7.5-6.3C366.2,364.1,373.3,364.2,380.4,364.2z"/>
<path d="M134.2,108.5c0-3.9-0.1-7.7,0-11.6c0.2-8.8,5.3-13.9,14-13.9c3.7,0,7.5-0.1,11.2,0c7.3,0.2,12.7,4.9,13,12.2
	c0.4,8.9,0.4,17.9,0,26.9c-0.3,7.2-5.5,11.8-12.8,12c-4.1,0.1-8.2,0.1-12.3,0c-7.7-0.2-12.8-5.1-13.1-12.9
	C134.1,117,134.3,112.8,134.2,108.5C134.2,108.5,134.2,108.5,134.2,108.5z M159.6,121.1c0-8.6,0-16.8,0-25.2c-4.2,0-8.1,0-12.3,0
	c0,8.4,0,16.7,0,25.2C151.4,121.1,155.4,121.1,159.6,121.1z"/>
</svg>
