<?xml version="1.0" encoding="utf-8"?>
<!-- Generator: Adobe Illustrator 24.0.2, SVG Export Plug-In . SVG Version: 6.00 Build 0)  -->
<svg version="1.1" id="Layer_1" xmlns="http://www.w3.org/2000/svg" xmlns:xlink="http://www.w3.org/1999/xlink" x="0px" y="0px"
	 viewBox="0 0 500 500" style="enable-background:new 0 0 500 500;" xml:space="preserve">
<style type="text/css">
	.st0{fill:#8331A7;}
</style>
<path class="st0" d="M459.5,270.1c-1.4,1.7-2.6,3.5-4.1,5c-31.6,31.7-63.2,63.4-94.7,95.1c-5,5-7.7,5-12.6,0.1
	c-37-37-73.8-74.1-111.1-110.9c-8.7-8.5-10.4-18.7-11.1-29.8c-0.4-6.2-1.1-12.3-1.7-17.9c-7.2,1.7-14.3,3.2-21.3,5.1
	c-1.1,0.3-2,2-2.5,3.2c-10,21.4-25.3,36.8-48.2,43.9c-3.8,1.2-5.6,2.8-6.7,6.7c-11.8,41.8-23.8,83.6-35.7,125.4
	c-1.1,3.8-3,6.4-6.4,8.3c-10.5,5.9-20.8,12-31.2,18.1c-3.5,2-6.6,1.4-8.6-2.2c-6.3-11.5-12.5-23-18.6-34.6c-1.9-3.7-0.8-6.9,2.8-9
	c3.5-2.1,7.1-3.9,10.9-6c-1.9-4-3.7-7.7-5.4-11.5c-2.1-4.7-1.3-7.6,2.9-10.4c3.5-2.3,7-4.5,10.9-7c-1.9-4-3.8-7.8-5.6-11.7
	c-2.4-5.2-1.7-7.8,3-11c2.9-2,5.8-4,8.7-5.9c1.7-1,2.4-2.1,1.1-3.9c-0.1-0.1-0.1-0.3-0.2-0.4c-6.3-9.2-5.6-18.6-2.2-28.8
	c3.5-10.6,5.7-21.6,8.7-32.4c0.6-2.3,0.1-3.6-1.4-5.3c-20.3-21.6-26-47-17.5-75c8.4-27.6,27.7-44.6,55.8-50.9
	c7.6-1.7,15.8-1,23.8-1.1c2.2,0,3.6-0.2,5.2-2.1c33-39.8,92.4-29.7,110.8,18.8c0.9,2.3,2.2,3.1,4.4,3.2c21.3,1.9,42.5,3.9,63.8,5.7
	c5.3,0.4,10,2.3,14.1,5.5c2.1,1.7,4.2,3.5,6.1,5.4c36.5,36.5,73,73,109.5,109.5c1.5,1.5,2.9,3.2,4.3,4.7
	C459.5,267.4,459.5,268.7,459.5,270.1z M444.3,267.9c-1.6-1-3.2-1.7-4.3-2.8c-33.6-33.5-67.2-67-100.6-100.7
	c-6.3-6.3-12.6-10.3-22-10.9c-22.1-1.4-44.1-4-66.2-5.9c-10.5-0.9-18.8,7.7-17.8,18.2c2.1,23,4.6,46,6.4,69
	c0.5,6.7,3.3,11.6,7.9,16.2c34.7,34.5,69.3,69.1,103.8,103.8c0.9,0.9,1.6,2.1,2.2,2.9C383.9,327.7,413.6,298.3,444.3,267.9z
	 M191.4,202.8c7.6-24.4-6.6-61.4-40.8-71.2c-0.6,1.4-1.3,2.9-1.8,4.4c-2.1,6.1-2,6.1,3.3,9.5c9.8,6.4,13.3,18.1,8.8,28.8
	c-4.4,10.4-15.7,16.3-26.5,13.8c-10.3-2.4-18-10.7-18.8-20.3c-0.9-10.8,4.8-20.1,15-24.5c1.1-0.5,2.6-1.3,2.9-2.3
	c1.3-3.9,2.2-8,3.3-12.1c-4.3,0-8.6-0.6-12.6,0.1c-24.9,4-42.2,18-49.7,42c-7.6,24.5-1.8,46.5,17.4,64.2c3.4,3.2,4.4,6.3,3.2,10.8
	c-2.8,10.3-4.7,20.9-8.3,30.9c-4.1,11.5-3.9,22,2.6,32.6c3,4.8,1.6,7.8-3.1,10.9c-3.5,2.4-7.1,4.7-10.8,7.1c2,4,3.7,7.7,5.5,11.3
	c2.5,5.3,1.7,8-3.3,11.2c-3.4,2.2-6.8,4.3-9.9,6.3c0,0.7-0.1,0.8-0.1,0.9c1.7,3.5,3.4,7.1,5.1,10.6c2.7,5.6,2,8.3-3.3,11.4
	c-3.2,1.9-6.4,3.8-9.9,5.9c4.1,7.5,8,14.7,12,22.1c7.6-4.4,14.9-8.5,21.9-13c1.8-1.2,3.5-3.4,4.1-5.4c12.5-43,24.8-86.1,37.1-129.2
	c1.2-4.2,3.4-6.3,7.8-6.9c8.1-1.2,15.5-4.6,22.2-9.4c9.7-6.9,17-15.9,22.3-27c-1.5-0.4-2.5-0.6-3.5-0.8c-9.4-2-17.9-6-25.5-11.8
	c-3.1-2.4-3.8-6.3-1.9-9.3c1.9-3,5.8-3.7,9.3-1.7c1.1,0.6,2,1.4,3,2C175.4,199.5,183,202.3,191.4,202.8z M206.3,202.9
	c4.8-1.8,9-3.4,13.3-5c2.5-0.9,3.4-2.5,3-5.3c-0.9-6.8-1.3-13.7-2.2-20.6c-1.3-10.6-0.4-20.8,7.9-28.5c4.3-4,9.8-6.8,15-10.3
	c-4.1-14.7-22.3-29-40-31.2c-20.1-2.5-38.6,8.1-44,17C194.5,135.6,210.2,163,206.3,202.9z M139.7,155.6c-6.3-0.1-10.4,3.8-10.5,9.7
	c0,5.7,4.3,10,9.9,10.1c5.4,0.1,10.3-4.4,10.4-9.8C149.7,160.1,145.3,155.7,139.7,155.6z"/>
<path class="st0" d="M343.7,216.5c-1.4,2.4-2.1,4.4-3.4,5.7c-10.4,10.6-20.9,21.1-31.5,31.5c-3.3,3.2-6.8,3.3-9.7,0.6
	c-2.9-2.7-2.8-6.7,0.4-10c10.4-10.5,21-21,31.5-31.5c2.2-2.2,4.9-3.5,7.6-1.8C340.6,212.2,341.9,214.5,343.7,216.5z"/>
<path class="st0" d="M381.6,254.5c-1.3,2.2-1.9,4-3,5.1c-10.7,10.8-21.5,21.6-32.4,32.3c-2.9,2.9-6.8,2.6-9.4-0.1
	c-2.7-2.8-2.7-6.4,0.3-9.4c10.6-10.7,21.3-21.4,32-32.1c2.2-2.2,4.9-3.3,7.6-1.5C378.7,250.3,379.9,252.6,381.6,254.5z"/>
</svg>
