<?xml version="1.0" encoding="utf-8"?>
<!-- Generator: Adobe Illustrator 24.0.2, SVG Export Plug-In . SVG Version: 6.00 Build 0)  -->
<svg version="1.1" id="Layer_1" xmlns="http://www.w3.org/2000/svg" xmlns:xlink="http://www.w3.org/1999/xlink" x="0px" y="0px"
	 viewBox="0 0 500 500" style="enable-background:new 0 0 500 500;" xml:space="preserve">
<style type="text/css">
	.st0{fill:#8331A7;}
</style>
<path class="st0" d="M148.5,67.5c5,0,10,0,14.9,0c1.7,0.3,3.5,0.6,5.2,0.9c34.6,6.3,58.7,25.7,69.8,59c11,32.9,3.5,62.8-20.3,88.1
	c-14,14.9-31.7,23.3-52.2,25.7c-2.2,0.3-3.1,1-3,3.3c0.2,3.7-0.1,7.4,0.2,11c0.1,0.9,1.4,2.3,2.4,2.6c2.6,0.7,5.4,0.8,8,1.3
	c14.4,3,27.2,9.3,38.1,18.3c22.5-22.5,44.8-44.8,67.2-67.3c-11.1-13.5-17.7-29.3-19.7-47.1c-4.4-38.9,20.4-78.3,57.6-90.7
	c6.8-2.3,14-3.4,20.9-5.1c5.2,0,10.4,0,15.7,0c1.3,0.2,2.6,0.4,3.8,0.7c7.9,2.1,15.8,4.1,23.5,6.6c4,1.3,5.4,5.3,4.1,9
	c-1.4,3.8-5.2,5.4-9.3,4.1c-0.6-0.2-1.1-0.4-1.7-0.6c-11.9-4.9-24.1-6.4-36.9-5c-53.1,6-81.9,68.4-51.8,112.7c0.4,0.5,0.9,1,1.5,1.8
	c8.2-13.7,19.2-23.6,33.6-29.9c-20.3-19.5-14.7-45.3-1.9-57.7c14.3-13.9,36.7-15.2,52.2-2.6c7.7,6.2,12.5,14.3,14,24
	c2.2,14.3-2.5,26.3-13.1,36.2c14.8,6.3,25.7,16.5,34,30.1c8.5-12.1,12.8-25.1,13.4-39.3c0.5-9.8-1.3-19.3-4.5-28.6
	c-1.3-3.9,0.6-7.6,4.2-8.9c3.7-1.4,7.3,0.3,9,4.1c0.7,1.5,1.3,3.1,1.6,4.7c1.4,5.8,2.6,11.7,3.9,17.6c0,5.2,0,10.4,0,15.7
	c-0.2,1-0.5,2-0.7,3c-6.1,51.7-56.8,86.7-107.4,74.1c-13.2-3.3-25-9.4-34.8-17.5c-22.5,22.5-44.9,44.8-67.3,67.2
	c11,14.5,16.2,25.8,18.8,41.1c1.3,7.5,1.3,7.5,9.2,7.5c7.7,0,7.7,0,9-7.4c6.7-39.8,39.4-69.4,80.1-72.6c38.7-3,75.6,21.5,88.2,58.9
	c2.2,6.7,3.2,13.8,4.8,20.7c0,5,0,10,0,14.9c-0.5,2.5-0.9,5.1-1.4,7.6c-7.8,47.9-56.3,80.7-103.6,70.2c-37.4-8.3-63.6-37-68.7-75.5
	c-0.2-1.9-0.8-2.8-2.8-2.7c-3.8,0.1-7.6,0.1-11.4,0c-2.1-0.1-2.6,0.9-2.8,2.8c-0.2,2.5-0.6,4.9-1.1,7.4
	c-10.1,46.9-53.2,76.3-100.5,68.6C95,423,62.1,377.5,69.7,331.8c6.6-39.7,36.3-68.3,76.4-73.6c2.1-0.3,2.8-1.1,2.8-3.1
	c-0.1-3.6-0.2-7.1,0-10.7c0.1-2.4-0.9-3-3.1-3.2c-40.2-4.6-72.1-36.7-76.4-77.1c-4.4-40.6,19.8-78.8,58.5-91.8
	C134.5,70.1,141.6,69,148.5,67.5z M228.9,344.7c0-40.2-32.7-72.9-72.9-72.9c-40.2,0-73,32.6-73,72.8c-0.1,40.3,32.7,73.2,73,73.1
	C196.2,417.6,228.9,384.8,228.9,344.7z M405.8,385.9c18-23,20.1-65.2-9-93.5c-28.3-27.6-73.4-27.5-101.7,0.3
	c-28.9,28.3-26.6,70.5-8.2,93.9c8.1-13.4,19.1-23.5,33.8-29.7c-8.7-8-13.6-17.6-13.7-29.3c-0.1-11.8,4.3-21.7,13-29.7
	c14.6-13.3,37.6-13.3,52.2,0c7.2,6.6,11.6,14.7,12.7,24.4c1.6,13.7-3.2,25.1-12.6,33.9c6.3,4.4,13,8.1,18.6,13.1
	C396.3,374.1,400.8,380.3,405.8,385.9z M215.4,196.5c20.3-27.3,18.9-71-12.5-97.6c-30.2-25.6-75.3-22.2-101.7,7.7
	c-26.1,29.6-20.9,70-4.3,89.8c8-13.4,19.1-23.3,33.5-29.6c-19.8-18.9-15.1-44.4-2.4-57.2c14.1-14.3,36.6-15.9,52.4-3.3
	c7.7,6.2,12.6,14.2,14.2,23.9c2.3,14.4-2.4,26.5-13,36.5C198.2,175.2,200.9,177.6,215.4,196.5z M348.1,176
	c-22.2,0.3-40,11.3-49.8,29.1c-1.5,2.6-1.1,4,1.2,5.8c11.5,9.2,24.4,14.9,39.1,16.3c20.6,2,38.8-3.8,54.8-17
	c1.5-1.3,1.9-2.3,0.8-4.2C383.6,187,367.6,176.7,348.1,176z M155.9,175.9c-21.6,0.9-37.4,11.2-47.9,29.9c-1.1,1.9-0.9,3,0.8,4.5
	c26.1,23,68,23,94.4,0.1c1.5-1.3,2.1-2.4,1-4.4C193.5,187.1,177.7,176.8,155.9,175.9z M345.9,366c-21.8,0.9-37.6,11.2-48.1,30.1
	c-1.1,1.9-0.5,2.9,0.9,4.1c26,23.1,68.9,23,94.6-0.1c1.5-1.4,1.8-2.4,0.8-4.2C383.6,377.1,367.8,366.8,345.9,366z M155.5,161.7
	c13.7,0.3,25-10.5,25.4-24.3c0.3-13.7-10.5-25-24.3-25.3c-13.8-0.3-25,10.5-25.4,24.3C130.8,150.1,141.7,161.4,155.5,161.7z
	 M370.9,136.9c0-13.8-11-24.9-24.8-24.9c-13.8,0-24.9,11-24.9,24.8c0,13.8,11,24.9,24.8,24.9C359.8,161.7,370.9,150.7,370.9,136.9z
	 M345.5,351.7c13.7,0.3,25-10.5,25.4-24.3c0.4-13.7-10.5-25-24.3-25.4c-13.8-0.3-25,10.4-25.4,24.3
	C320.8,340.1,331.7,351.4,345.5,351.7z"/>
<path class="st0" d="M404.2,106.7c-3.9,0-7-3.2-7-7c0-3.8,3.2-7.1,7-7.1c4-0.1,7.2,3.2,7.1,7.3C411.2,103.8,408.1,106.8,404.2,106.7
	z"/>
<path class="st0" d="M146.6,364.4c0.9-1.3,1.7-2.3,2.4-3.4c11.2-16.7,22.3-33.5,33.5-50.2c0.8-1.2,1.6-2.4,2.6-3.4
	c2.3-2.2,6.2-2.4,8.9-0.5c2.6,1.9,3.6,5.2,2.4,8.2c-0.5,1.2-1.2,2.3-1.9,3.4c-13.3,20-26.7,40-40,60c-4.7,7-9.4,7.2-14.5,0.5
	c-7.6-9.8-15.3-19.6-22.9-29.5c-3.2-4.2-2.3-9,1.9-11.2c3.2-1.6,6.8-0.7,9.4,2.6c5.3,6.7,10.5,13.5,15.7,20.2
	C144.8,362.2,145.7,363.2,146.6,364.4z"/>
</svg>
