<?xml version="1.0" encoding="utf-8"?>
<!-- Generator: Adobe Illustrator 24.0.2, SVG Export Plug-In . SVG Version: 6.00 Build 0)  -->
<svg version="1.1" id="Layer_1" xmlns="http://www.w3.org/2000/svg" xmlns:xlink="http://www.w3.org/1999/xlink" x="0px" y="0px"
	 viewBox="0 0 500 500" style="enable-background:new 0 0 500 500;" xml:space="preserve">
<style type="text/css">
	.st0{fill:#8331A7;}
</style>
<g>
	<g>
		<path class="st0" d="M125.5,443.2c-25.8-20.8-47.8-44.6-60.3-75.9c-8.5-21.5-8.9-42.9,2.4-63.8c1.3-2.5,3-4.4,6-4.3
			c4.2,0.1,6.2,4.2,4.5,8.6c-2.3,5.9-5.2,11.7-6.5,17.9c-3.3,14.9,0,29.1,6.2,42.7c11.2,24.4,28.8,43.8,48.7,61.3
			c0.2,0.2,0.5,0.2,1.7,1.3c7.5-7.9,15.1-15.6,22.3-23.8c12-13.6,22.5-28.2,28.7-45.5c7.5-21,7-41.1-6.9-59.5
			c-18.2-24.3-53.2-29.7-77.9-12.2c-0.9,0.7-1.8,1.4-2.7,2c-3.1,1.9-6.2,1.4-8-1.1c-1.9-2.6-1.6-6,1.5-7.9c6.7-4,13.4-8.6,20.8-11
			c43.9-14.1,87.8,16.9,89.3,62.9c0.5,15.2-4,29.4-10.7,42.9c-9,18-21.6,33.4-35.6,47.6c-1.1,1.1-2.1,2.4-3.2,3.6
			c-0.2,0.2-0.4,0.4-0.6,0.5c-5.3,4.5-10.6,9.1-15.9,13.6C128,443.2,126.8,443.2,125.5,443.2z"/>
		<path class="st0" d="M378.8,296.1c8.6-9,16.8-17.7,25-26.5c1.6-1.7,3-3.7,4.6-5.5c2.4-2.6,5.7-3,8.1-1.1c2.4,1.9,2.8,5.3,0.6,8.1
			c-3.4,4.3-6.8,8.7-10.7,12.6c-7.6,7.6-15.4,15.1-23.3,22.3c-3.5,3.2-5.8,3.2-9.3,0.2c-21.1-17.9-39.7-37.9-51.6-63.3
			c-9-19.2-12.2-39.1-4.2-59.7c9.3-23.9,34.1-43.3,66.1-41.1c25.7,1.7,50,21.8,56.8,47.6c4.8,18,1.6,35-5.7,51.6
			c-1.1,2.4-2.3,4.7-3.5,7.1c-2.4,4.9-5.3,6.5-8.6,5c-3.3-1.6-3.6-4.8-1.6-9.8c3.2-8,6.8-15.9,8.9-24.2
			c7.2-29.3-11.2-58.3-40.5-64.9c-28.7-6.5-57.7,12.1-64,41.2c-3.1,14.3-0.2,27.9,5.8,41C342.2,260,359.1,278.3,378.8,296.1z"/>
		<path class="st0" d="M147.4,198.1c6.3-6.6,12.7-12.9,18.6-19.6c11.8-13.5,22-27.9,26.9-45.5c7.9-28.1-7.6-55.5-35.1-62.2
			c-30.5-7.4-60.3,16.2-59.3,47.6c0.2,7.6,2.9,15.1,4.5,22.7c0.3,1.4,1.1,2.8,1.6,4.2c1.1,3.4,0,6.4-2.8,7.6c-3,1.3-6.1-0.1-7.6-3.6
			c-4.4-10.1-7.2-20.5-7.2-31.6c0-30.7,23.3-56.2,54.3-59.3c29.5-3,57.8,18,63.6,47.4c3.1,15.4,0.2,30.2-6.4,44.2
			c-11,23.7-28.3,42.4-48,59c-2.7,2.3-5.5,2.2-8.2-0.1c-13.4-11.1-25.4-23.5-35.5-37.6c-2.2-3.1-1.8-6.4,0.7-8.4
			c2.6-2,5.8-1.1,8.5,1.9c9.2,10.2,18.5,20.4,27.8,30.5C144.7,196.1,145.7,196.7,147.4,198.1z"/>
		<path class="st0" d="M96.7,336.7c-0.1-16.8,13.7-30.7,30.5-30.6c16.7,0,30.3,13.6,30.5,30.3c0.2,16.5-14,30.8-30.6,30.7
			C110.5,367.1,96.9,353.4,96.7,336.7z M108,336.6c0,10.5,8.6,19.2,19.1,19.2c10.5,0.1,19.5-8.9,19.4-19.4
			c-0.1-10.5-8.7-19.1-19.2-19.1C116.6,317.3,107.9,325.9,108,336.6z"/>
		<path class="st0" d="M378.4,177.7c15.9,0,29.2,13.3,29.2,29.2c0,15.9-13.2,29.2-29.1,29.3c-15.9,0.1-29.6-13.5-29.4-29.4
			C349.2,190.9,362.5,177.7,378.4,177.7z M396.3,207.2c0.1-9.8-7.9-18-17.7-18.2c-9.9-0.2-18.3,8.1-18.3,18c0,9.7,8.2,18,17.9,18
			C388,225.1,396.2,217,396.3,207.2z"/>
		<path class="st0" d="M146.7,144.8c-14.8,0-27-12-27.2-26.8c-0.2-14.8,12.2-27.4,27.1-27.4c14.8-0.1,27.2,12.4,27.1,27.3
			C173.7,132.7,161.6,144.8,146.7,144.8z M146.8,133.5c8.9-0.1,15.8-7.2,15.6-16.2c-0.1-8.6-7.4-15.7-16-15.6
			c-8.8,0.1-15.9,7.5-15.7,16.3C130.9,126.7,138.1,133.6,146.8,133.5z"/>
		<path class="st0" d="M350.3,291c4.2,2.2,8.1,3.6,11.3,6.1c1.2,0.9,1.4,4.4,0.6,6c-0.8,1.5-3.7,3-5.4,2.7c-3.3-0.7-6.7-2.1-9.5-4.1
			c-1.3-1-2.1-4.1-1.7-5.8C346.1,294,348.4,292.8,350.3,291z"/>
		<path class="st0" d="M373.6,318c-0.2,0.5-0.4,2-1.2,2.5c-3.6,2.1-7.2,4.3-11.2,5.6c-1.2,0.4-4.2-2-4.7-3.6
			c-0.6-1.6,0.2-4.7,1.6-5.8c2.4-2.1,5.4-3.5,8.4-4.7C370,310.6,373.7,313.7,373.6,318z"/>
		<path class="st0" d="M170.7,215.6c-0.1,4.3-3.2,7.1-6.3,6.2c-3.2-0.9-6.5-2.1-9.1-4.1c-1.4-1.1-2.2-4.1-2-6.1
			c0.3-2.7,3-4.4,5.6-3.6c3.4,1,6.7,2.6,9.8,4.4C169.9,213,170.3,214.9,170.7,215.6z"/>
		<path class="st0" d="M280.6,263.7c-0.1,4.3-3.1,7-6.3,6.1c-3.2-0.9-6.5-2.1-9.1-4.1c-1.4-1.1-2.5-4.3-1.9-6
			c0.6-1.7,3.6-3.9,5.1-3.6c3.7,0.8,7.2,2.6,10.5,4.5C280,261.2,280.3,263.1,280.6,263.7z"/>
		<path class="st0" d="M255.2,383.9c-2-2-4.3-3.2-4.7-4.8c-0.4-1.8,0.1-4.8,1.5-5.9c2.5-2.1,5.7-3.8,8.8-4.7
			c1.6-0.4,4.5,0.8,5.6,2.2c1,1.3,1.1,4.8,0.2,5.7C263.3,379.2,259.4,381.2,255.2,383.9z"/>
		<path class="st0" d="M308.2,275.8c0,3.9-3.1,6.9-6.2,6.1c-3.3-0.9-6.6-2.4-9.6-4.1c-2.3-1.3-3.1-4.1-1.7-6.2
			c1-1.6,3.7-3.7,5.1-3.4c3.8,0.9,7.4,2.8,10.8,4.6C307.5,273.3,307.8,275.1,308.2,275.8z"/>
		<path class="st0" d="M341.6,324.8c2,1.7,4.3,2.7,4.8,4.3c0.5,1.8,0.2,4.9-1.1,6c-2.7,2.2-6.1,4-9.5,4.9c-1.5,0.4-4.5-1-5.5-2.5
			c-0.9-1.3-0.8-4.8,0.2-5.7C333.7,329.1,337.5,327.3,341.6,324.8z"/>
		<path class="st0" d="M188.1,417.5c-0.9,0.9-2.3,3-4.2,4.1c-3.2,1.8-6.4,5-10.6,2.7c-3.3-1.8-3.9-6.6-0.8-8.8
			c2.7-2,5.7-3.6,8.9-4.7C184.9,409.5,188.2,412.3,188.1,417.5z"/>
		<path class="st0" d="M198.2,227.6c0.1,4.2-3.2,7.2-6.5,6.2c-3.2-0.9-6.3-2.4-9.2-4c-2.4-1.3-3.1-4.1-1.8-6.2
			c1.1-1.7,3.8-3.8,5.4-3.5c3.6,0.7,7,2.5,10.2,4.3C197.4,225,197.8,226.9,198.2,227.6z"/>
		<path class="st0" d="M212.8,230.8c4.3,2.3,8.2,3.8,11.4,6.2c1.1,0.9,1.4,4.5,0.5,6c-0.8,1.5-3.7,3-5.4,2.6c-3.2-0.6-6.5-2.1-9.1-4
			c-1.4-1-2.4-4-1.9-5.7C208.6,234.1,211,232.7,212.8,230.8z"/>
		<path class="st0" d="M240.5,243c4.1,2.1,8,3.5,11,5.8c1.2,0.9,1.6,4.4,0.8,6c-0.8,1.5-3.7,3.2-5.3,2.9c-3.3-0.6-6.8-2.1-9.5-4.1
			c-1.4-1.1-2.2-4.3-1.7-6.1C236.2,245.8,238.7,244.6,240.5,243z"/>
		<path class="st0" d="M241.2,388c-0.3,4.6-4.6,5.5-7.8,7.4c-2.5,1.5-5.1,2.3-7.7,0.4c-2.9-2.1-3.2-6.2-0.3-8.4
			c2.7-2,5.7-3.6,8.8-4.8C237.6,381.2,241.1,384.1,241.2,388z"/>
		<path class="st0" d="M145.2,429.6c0.2-0.2,0.4-0.4,0.6-0.5c2.4-1.2,4.8-2.5,7.3-3.7c3.4-1.6,6.6-0.7,8.1,2.1
			c1.5,2.9,0.5,5.8-2.9,7.8c-1.8,1.1-3.7,2.1-5.6,3c-2.4,1.1-5.2,1.6-6.8-0.9c-1.1-1.7-0.8-4.3-1.1-6.5
			C144.7,430.6,145,430.1,145.2,429.6z"/>
		<path class="st0" d="M322.8,278.9c4.2,2.2,8.1,3.6,11.3,6.1c1.2,0.9,1.4,4.5,0.6,6c-0.8,1.5-3.7,3-5.4,2.7
			c-3.3-0.7-6.7-2.2-9.4-4.2c-1.3-1-2.1-4.1-1.6-5.8C318.7,282,321,280.7,322.8,278.9z"/>
		<path class="st0" d="M214.7,401.9c0,0.2-0.1,0.5-0.1,0.7c-0.7,4.1-10.4,9.5-14.2,7.8c-3.8-1.6-4.7-6.7-1.4-9.2
			c2.5-1.9,5.5-3.5,8.5-4.6C211.2,395.4,214.8,398.2,214.7,401.9z"/>
		<path class="st0" d="M320.5,345.5c0,4.8-10.7,10.7-14.9,8.3c-3-1.7-4-6.2-1.3-8.3c3-2.3,6.5-4.2,10.1-5.3
			C317.7,339.1,320.5,342,320.5,345.5z"/>
		<path class="st0" d="M294,360.5c-0.3,0.5-0.6,2.2-1.5,2.8c-3.1,2-6.4,4-9.9,5c-1.5,0.4-4.5-1.2-5.3-2.8c-0.8-1.6-0.5-5,0.7-6
			c2.8-2.3,6.2-4.1,9.7-5.3C291,353.1,294.1,356.2,294,360.5z"/>
	</g>
</g>
</svg>
