<?xml version="1.0" encoding="utf-8"?>
<!-- Generator: Adobe Illustrator 24.0.2, SVG Export Plug-In . SVG Version: 6.00 Build 0)  -->
<svg version="1.1" id="Layer_1" xmlns="http://www.w3.org/2000/svg" xmlns:xlink="http://www.w3.org/1999/xlink" x="0px" y="0px"
	 viewBox="0 0 500 500" style="enable-background:new 0 0 500 500;" xml:space="preserve">
<style type="text/css">
	.st0{fill:#8331A7;}
</style>
<g>
	<g>
		<path class="st0" d="M95.4,379.6c0-2.4,0-4.4,0-6.3c0-97.5,0-195,0-292.4c0-5.3,0.4-10.4,3.8-14.9c4.4-5.9,10.5-8.1,17.7-8.1
			c54.8,0.1,109.5,0,164.3,0c32.1,0,64.2,0,96.3,0c14.3,0,21.9,7.6,21.9,21.9c0,97.9,0,195.8,0,293.7c0,1.8,0,3.6,0,6
			c3.2,0,6.1,0,9,0c3.1,0,5.3,1.3,5.2,4.7c-0.1,3.2-2.3,4.3-5.1,4.4c-1.1,0.1-2.3,0-3.4,0c-105.2,0-210.3,0-315.5,0
			c-1.3,0-2.5,0.1-3.8,0c-2.7-0.2-4.6-1.7-4.6-4.5c0-2.8,1.8-4.4,4.6-4.5C88.8,379.5,91.9,379.6,95.4,379.6z M104.7,177.3
			c0,67.6,0,134.8,0,202.1c10.7,0,21,0,31.8,0c0-1.7,0-3.3,0-4.8c0-30.8,0-61.5,0-92.3c0-11.3,5.5-16.9,16.8-16.9
			c20.8,0,41.7,0,62.5,0c11.3,0,16.9,5.6,16.9,16.8c0,30.8,0,61.5,0,92.3c0,1.6,0,3.3,0,4.9c52.8,0,105,0,157.5,0
			c0-67.4,0-134.6,0-202.1C294.9,177.3,199.9,177.3,104.7,177.3z M390.1,133.8c0.1-0.8,0.3-1.4,0.3-1.9c0-17.9,0.1-35.8,0-53.7
			c-0.1-7.6-4.3-11.1-12.3-11.1c-87,0-174,0-261,0c-9,0-12.7,3.7-12.7,12.9c0,14.2,0,28.5,0,42.7c0,3.6,0,7.3,0,11.1
			C199.8,133.8,294.7,133.8,390.1,133.8z M105.1,167.6c95.2,0,190.1,0,285,0c0-8.3,0-16.2,0-24.1c-95.2,0-190,0-285,0
			C105.1,151.6,105.1,159.4,105.1,167.6z M223.6,373.9c0-18.8,0-36.2,0-53.7c0-13,0-25.9,0-38.9c0-3.5-1-6.6-4.8-6.7
			c-9.8-0.3-19.6-0.1-29.4-0.1C186.1,312.6,196.3,345.6,223.6,373.9z M179.6,274.5c-8.6,0-17.3,0-26,0c-6.9,0-8.1,1.2-8.1,8.1
			c0,28.7,0,57.5,0,86.2c0,1.3,0.1,2.6,0.3,4.8C172.8,345.5,182.9,312.5,179.6,274.5z M184.5,326.1c-6.5,20.1-17,37.6-31.4,53.1
			c21.3,0,41.8,0,62.9,0C201.4,363.5,191.1,346,184.5,326.1z"/>
		<path class="st0" d="M252.1,434.6c1.5,0,3.4-0.5,4.6,0.1c1.7,1,3.9,2.6,4.1,4.3c0.2,1.3-2,4-3.4,4.3c-3.4,0.7-7.1,0.7-10.4,0.1
			c-1.5-0.3-3.5-2.8-3.5-4.3c0-1.5,2.1-3.4,3.7-4.2C248.4,434.1,250.4,434.7,252.1,434.6C252.1,434.6,252.1,434.6,252.1,434.6z"/>
		<path class="st0" d="M69.7,422.7c-4.2-1.7-8-2.9-11.4-4.9c-1.1-0.7-1.8-3.7-1.3-5c0.6-1.3,3.2-2.9,4.5-2.6c3.5,0.7,7,2.1,10.2,3.9
			c1.1,0.6,2.1,3.2,1.7,4.6C73,420.2,71.1,421.3,69.7,422.7z"/>
		<path class="st0" d="M96,429.7c-4.3-1.1-8-1.7-11.3-3.2c-1.3-0.6-2.5-3.3-2.2-4.7c0.3-1.4,2.6-3.4,3.9-3.3c3.7,0.3,7.5,1.2,11,2.6
			c1.2,0.5,2.2,3.3,2,4.8C99.1,427.5,97.1,428.6,96,429.7z"/>
		<path class="st0" d="M434.3,419.4c-1.5-1.4-3.6-2.3-3.9-3.7c-0.3-1.6,0.3-4.2,1.5-5c2.8-2,6.1-3.5,9.5-4.4
			c1.4-0.4,3.9,0.8,4.8,2.1c0.7,1.1,0.5,4.2-0.4,4.8C442.4,415.6,438.5,417.2,434.3,419.4z"/>
		<path class="st0" d="M408.1,427.5c-1.2-1.2-3.3-2.3-3.5-3.7c-0.3-1.5,0.8-4.3,2-4.8c3.3-1.5,6.9-2.6,10.5-2.9
			c1.5-0.1,3.9,1.8,4.4,3.3c0.4,1.2-0.9,4.1-2.2,4.7C416,425.5,412.4,426.2,408.1,427.5z"/>
		<path class="st0" d="M381.6,433.1c-0.9-1-3.3-2.4-3.4-3.9c-0.1-1.6,1.5-4.3,3.1-4.9c2.9-1.3,6.3-1.9,9.4-1.8
			c1.7,0.1,4.1,2.1,4.5,3.7c0.4,1.2-1.5,4-3,4.7C389.4,432,386.1,432.2,381.6,433.1z"/>
		<path class="st0" d="M354.9,437.3c-0.9-1.1-3.3-2.6-3.5-4.3c-0.1-1.5,1.9-4.1,3.5-4.7c2.8-1.1,6.1-1.5,9.1-1.2
			c1.7,0.2,4.3,2.1,4.5,3.6c0.2,1.5-1.6,4.2-3.2,4.8C362.5,436.6,359.3,436.6,354.9,437.3z"/>
		<path class="st0" d="M307.7,432.7c0.6,0,2.4-0.5,3.6,0.1c1.5,0.8,3.6,2.5,3.6,3.8c0,1.6-1.7,4.1-3.2,4.5c-3.2,0.9-6.7,1.2-10,0.8
			c-1.6-0.2-4.1-2.6-4.1-4.1c-0.1-1.5,2.1-3.6,3.8-4.5C302.8,432.4,304.9,432.8,307.7,432.7z"/>
		<path class="st0" d="M50.4,378.4c-0.4,0.6-0.9,1.9-1.8,2.8c-2,2-4,4.2-6.4,5.4c-1.6,0.8-4.8,0.9-5.8-0.1c-1.1-1-1.3-4.5-0.4-5.8
			c2.1-2.7,4.9-5,7.8-6.9C46.9,371.9,50.4,374.2,50.4,378.4z"/>
		<path class="st0" d="M38.3,395c1.4,0.8,2.6,1.2,3.5,2c2,1.7,3.9,3.6,5.8,5.5c2,1.9,2.8,4.4,0.7,6.2c-1.3,1.1-4.4,1.6-5.8,0.8
			c-2.8-1.7-5.3-4.2-7.3-6.8c-0.9-1.1-0.9-3.5-0.4-5C35.2,396.5,37,395.9,38.3,395z"/>
		<path class="st0" d="M122.6,434.8c-4.3-0.8-7.8-1-10.9-2.2c-1.4-0.6-3.1-3.3-2.8-4.7c0.2-1.4,2.7-3.5,4.2-3.5
			c3.3-0.1,6.8,0.4,9.9,1.6c1.5,0.6,3.1,3.3,3,5C125.9,432.4,123.6,433.7,122.6,434.8z"/>
		<path class="st0" d="M332,439.7c-1.1,0.1-2.5,0.7-3.3,0.2c-1.7-1.1-3.9-2.5-4.3-4.2c-0.2-1.2,1.8-3.9,3.4-4.3
			c3-0.9,6.4-1.3,9.6-0.9c1.7,0.2,4.2,2.4,4.3,3.8c0.1,1.5-1.9,3.8-3.5,4.6C336.5,439.8,334.1,439.5,332,439.7
			C332,439.8,332,439.7,332,439.7z"/>
		<path class="st0" d="M61.9,374.4c-1.3-1.2-3.4-2.2-3.7-3.6c-0.3-1.5,0.5-4.3,1.7-4.9c3.1-1.8,6.7-3.1,10.2-3.8
			c1.3-0.3,3.9,1.4,4.4,2.7c0.5,1.4-0.3,4.3-1.5,5C69.8,371.7,66.1,372.7,61.9,374.4z"/>
		<path class="st0" d="M440.8,367.6c4.1,2.6,7.9,4.7,11.1,7.4c0.8,0.7,0.6,3.7-0.2,4.9c-0.8,1.1-3.4,2-4.6,1.5
			c-3.3-1.3-6.6-3.2-9.4-5.4c-1-0.8-1.4-3.4-1-4.9C437.1,369.8,439.1,369,440.8,367.6z"/>
		<path class="st0" d="M278.7,442.9c-6.2,0.3-8.7-0.9-8.4-4.2c0.4-5.1,4.6-4.4,8-4.6c1.8-0.1,3.9-0.7,5.4,0c1.8,0.8,3.9,2.5,4.3,4.2
			c0.6,2.6-1.4,4.4-4.2,4.7C282.1,443.1,280.4,442.9,278.7,442.9z"/>
		<path class="st0" d="M414.7,358.6c4.3,1.5,8,2.3,11.3,4.1c1.2,0.6,2.1,3.6,1.6,4.9c-0.5,1.4-3,3.1-4.3,2.9
			c-3.6-0.5-7.1-1.6-10.3-3.3c-1.2-0.6-2.2-3.4-1.9-4.9C411.4,360.9,413.5,359.8,414.7,358.6z"/>
		<path class="st0" d="M147.3,438.1c-2.6-0.3-5.3-0.6-7.9-1.1c-2.8-0.5-4.3-2.1-3.9-5c0.3-2.9,2.3-4,5.1-3.8c2.7,0.2,5.3,0.7,7.9,1
			c2.9,0.3,4.9,1.9,4.6,4.9C152.8,437.3,150.4,438.4,147.3,438.1z"/>
		<path class="st0" d="M171.8,440.6c-2-0.2-4.2,0.1-5.8-0.8c-1.6-1-3.7-3.2-3.5-4.7c0.1-1.5,2.6-3.6,4.3-3.8
			c2.8-0.5,5.8,0.3,8.8,0.6c2.8,0.2,4.5,1.9,4.4,4.7c-0.1,2.8-2,4.2-4.8,4.2C174.1,440.7,172.9,440.6,171.8,440.6
			C171.8,440.5,171.8,440.6,171.8,440.6z"/>
		<path class="st0" d="M198.3,442.1c-1.7,0-3.7,0.6-5-0.1c-1.7-0.9-4-2.9-3.9-4.4c0-1.5,2.4-3.9,4.1-4.2c3.2-0.5,6.8-0.2,10,0.6
			c1.5,0.4,3.2,2.8,3.3,4.4c0.1,1.3-2,3.1-3.5,3.9c-1.4,0.7-3.3,0.1-5,0.1C198.3,442.3,198.3,442.2,198.3,442.1z"/>
		<path class="st0" d="M464.2,393.2c-1.2,2.8-2.1,5.7-3.6,8.3c-1.3,2.3-3.5,3.3-6,1.9c-2.5-1.4-2.7-3.6-1.8-6.2
			c0.7-1.7,1.6-3.3,1.8-5.1c0.3-3.3,1.4-5.7,4.9-5.4C463.1,387,463.8,389.8,464.2,393.2z"/>
		<path class="st0" d="M225.3,434.5c1.5,0,3.4-0.5,4.6,0.1c1.7,1,3.7,2.7,4,4.4c0.2,1.3-2.1,3.8-3.6,4.1c-3.4,0.5-7.1,0.4-10.4-0.3
			c-1.4-0.3-3.4-2.9-3.3-4.4c0.1-1.4,2.2-3.2,3.9-4c1.4-0.7,3.3-0.1,5-0.1C225.3,434.4,225.3,434.5,225.3,434.5z"/>
		<path class="st0" d="M201.2,201.6c-3.7,0-7.3,0-11,0c-2.9,0-5-1.3-5.1-4.4c-0.1-3.4,2.1-4.7,5.2-4.7c7.5,0,14.9,0,22.4,0
			c2.9,0,5.1,1.3,5.1,4.4c0.1,3.3-2.1,4.7-5.2,4.7C208.8,201.7,205,201.6,201.2,201.6z"/>
		<path class="st0" d="M268.3,192.5c3.7,0,7.3,0,11,0c3.2,0,5.8,1.1,5.7,4.7c-0.1,3.3-2.5,4.5-5.5,4.5c-7.3,0-14.6,0-22,0
			c-3.1,0-5.3-1.3-5.3-4.7c0-3.2,2.2-4.4,5.1-4.4C260.9,192.5,264.6,192.5,268.3,192.5z"/>
		<path class="st0" d="M134.6,192.5c3.7,0,7.3-0.1,11,0c3,0.1,5.3,1.3,5.3,4.7c-0.1,3.1-2.2,4.4-5.1,4.4c-7.5,0-14.9,0-22.4,0
			c-3.1,0-5.3-1.4-5.3-4.7c0-3.1,2.2-4.4,5.1-4.4C127,192.5,130.8,192.5,134.6,192.5z"/>
		<path class="st0" d="M335.4,201.6c-3.7,0-7.3,0-11,0c-2.9,0-5.1-1.4-5.2-4.4c-0.1-3.3,2.1-4.7,5.2-4.7c7.5,0,14.9,0,22.4,0
			c2.9,0,5.1,1.2,5.1,4.4c0.1,3.4-2.1,4.7-5.2,4.7C343,201.7,339.2,201.7,335.4,201.6z"/>
		<path class="st0" d="M369.5,201.7c-6,0-8.4-1.4-8.3-4.7c0.1-3.2,2.4-4.5,8.1-4.5c1.1,0,2.2,0,3.4,0c2.9,0.2,4.9,1.6,4.8,4.7
			c-0.1,3.1-2.2,4.3-5.1,4.4C371.4,201.7,370.5,201.6,369.5,201.7z"/>
		<path class="st0" d="M235.4,201.7c-6,0-8.4-1.3-8.3-4.7c0.1-3.3,2.4-4.5,8.6-4.5c1,0,2,0,2.9,0c2.9,0.2,5,1.7,4.9,4.7
			c-0.1,3-2.2,4.4-5.1,4.4C237.4,201.7,236.4,201.6,235.4,201.7z"/>
		<path class="st0" d="M168,201.7c-0.4,0-0.8,0-1.3,0c-3.3,0.1-6.6-0.4-6.6-4.6c0-4.2,3.3-4.6,6.6-4.6c1.7,0,3.4-0.1,5,0.1
			c2.7,0.3,4.5,1.6,4.5,4.5c0,2.9-1.8,4.3-4.5,4.5C170.5,201.7,169.3,201.6,168,201.7C168,201.6,168,201.6,168,201.7z"/>
		<path class="st0" d="M302.2,201.6c-5.8,0-7.9-1.2-8-4.5c0-3.3,2.2-4.6,7.9-4.6c1.3,0,2.5-0.1,3.8,0c2.7,0.3,4.6,1.6,4.6,4.5
			c0,2.9-1.8,4.3-4.5,4.6C304.7,201.7,303.5,201.6,302.2,201.6z"/>
		<path class="st0" d="M201.4,109.5c3.8,0,7.6,0,11.4,0c3,0,5,1.3,5.1,4.4c0.1,3.1-1.9,4.6-4.9,4.6c-7.7,0.1-15.5,0.1-23.2,0
			c-2.7,0-4.6-1.5-4.7-4.4c0-3.1,1.9-4.6,4.9-4.6C193.8,109.4,197.6,109.5,201.4,109.5z"/>
		<path class="st0" d="M134.2,118.5c-3.7,0-7.3,0-11,0c-2.9,0-5.1-1.3-5.2-4.4c-0.1-3.3,2.1-4.7,5.3-4.7c7.5,0,14.9,0,22.4,0
			c2.9,0,5,1.2,5.1,4.4c0.1,3.4-2.2,4.6-5.2,4.7C141.8,118.6,138,118.5,134.2,118.5z"/>
		<path class="st0" d="M268.4,118.5c-3.7,0-7.3,0.1-11,0c-3-0.1-5.3-1.3-5.2-4.7c0.1-3.1,2.2-4.4,5.1-4.4c7.5,0,14.9,0,22.4,0
			c3.1,0,5.3,1.4,5.3,4.7c0,3.1-2.3,4.3-5.2,4.4C276,118.6,272.2,118.5,268.4,118.5z"/>
		<path class="st0" d="M335.3,118.5c-3.7,0-7.3,0-11,0c-2.9,0-5.1-1.4-5.2-4.4c0-3.2,2.1-4.7,5.3-4.7c7.5,0,14.9,0,22.4,0
			c2.9,0,5,1.2,5.1,4.4c0.1,3.4-2.2,4.6-5.2,4.7C342.9,118.6,339.1,118.5,335.3,118.5z"/>
		<path class="st0" d="M235.7,109.5c0.8,0,1.7,0,2.5,0c3.2,0,5.3,1.5,5.3,4.7c-0.1,3-2.2,4.3-5.1,4.4c-2,0-3.9,0-5.9,0
			c-3.1-0.1-5.3-1.4-5.3-4.7c0.1-3,2.2-4.4,5.1-4.4C233.4,109.5,234.5,109.5,235.7,109.5z"/>
		<path class="st0" d="M167.8,118.5c-3-0.1-7.1,0.7-7.7-4.4c-0.4-3.3,2.1-4.8,8.1-4.7c3.4,0,7.5-0.9,8,4.3
			C176.7,117.2,174.3,118.5,167.8,118.5z"/>
		<path class="st0" d="M369.8,109.5c0.8,0,1.7,0,2.5,0c3.1,0,5.3,1.4,5.2,4.7c-0.1,3.1-2.2,4.3-5.1,4.4c-2,0.1-3.9,0.1-5.9,0
			c-3-0.1-5.3-1.4-5.2-4.7c0.1-3,2.2-4.3,5.1-4.4C367.5,109.4,368.6,109.5,369.8,109.5z"/>
		<path class="st0" d="M302.5,109.4c5.8,0,8,1.2,8,4.4c0.1,3.4-2.2,4.7-8.2,4.7c-5.8,0-7.9-1.2-8-4.5
			C294.2,110.7,296.3,109.4,302.5,109.4z"/>
	</g>
</g>
</svg>
