<?xml version="1.0" encoding="utf-8"?>
<!-- Generator: Adobe Illustrator 24.0.2, SVG Export Plug-In . SVG Version: 6.00 Build 0)  -->
<svg version="1.1" id="Layer_1" xmlns="http://www.w3.org/2000/svg" xmlns:xlink="http://www.w3.org/1999/xlink" x="0px" y="0px"
	 viewBox="0 0 500 500" style="enable-background:new 0 0 500 500;" xml:space="preserve">
<style type="text/css">
	.st0{fill:#8331A7;}
</style>
<path class="st0" d="M213.7,157.5c8.6,0,16.8,0,25.3,0c3.6-23.8,15.1-42.7,35.5-55.6c13.8-8.8,29.1-12.5,45.5-11.4
	c33,2.2,64.7,26.6,70.8,67.2c8.8,0,17.7,0,26.6,0c6.2,0,7.3,1.1,7.3,7.4c0,89.9,0,179.9,0,269.8c0,6.3-0.9,7.2-7.4,7.2
	c-112.1,0-224.2,0-336.3,0c-6.7,0-7.3-0.7-7.3-7.5c0-122.5,0-245.1,0-367.6c0-6.9,0.7-7.6,7.7-7.6c41.5,0,83,0,124.6,0
	c6.8,0,7.7,0.9,7.7,7.7c0,28.5,0,57.1,0,85.6C213.7,154.1,213.7,155.6,213.7,157.5z M204.7,68.3c-40.9,0-81.6,0-122.2,0
	c0,121.8,0,243.2,0,364.9c40.8,0,81.4,0,122.2,0C204.7,311.5,204.7,189.9,204.7,68.3z M415.7,433.2c0-88.9,0-177.6,0-266.4
	c-8.3,0-16.4,0-24.4,0c-1.3,42.8-33.5,72.3-69.2,75.6c-18.7,1.7-36-2.7-51.2-13.7c-21-15.2-31.4-36.1-32.4-61.8
	c-8.4,0-16.5,0-24.4,0c0,89,0,177.7,0,266.4c10.7,0,21.1,0,31.8,0c0-1.6,0-3,0-4.4c0-24.6,0-49.2,0-73.8c0-6.2,0.9-7.1,7-7.1
	c41.3,0,82.5,0,123.8,0c6.3,0,7.3,0.9,7.3,7.3c0,24.5,0,48.9,0,73.4c0,1.5,0,3,0,4.7C394.6,433.2,404.9,433.2,415.7,433.2z
	 M382.3,166.1c-0.8-38-31.2-67.9-68.3-67.2c-38.2,0.7-67.5,31.7-66.6,70.4c0.8,36.3,32.2,65.4,69.6,64.7
	C352.9,233.2,383.1,201.9,382.3,166.1z M310.2,433.2c0-25.6,0-51,0-76.4c-18.7,0-37.1,0-55.5,0c0,25.6,0,50.9,0,76.4
	C273.1,433.2,291.4,433.2,310.2,433.2z M374.9,356.8c-18.7,0-37.1,0-55.4,0c0,25.7,0,51.1,0,76.4c18.6,0,36.9,0,55.4,0
	C374.9,407.6,374.9,382.3,374.9,356.8z"/>
<path class="st0" d="M136.5,120c0,5,0,9.9,0,14.9c0,4.1-1.5,5.7-5.4,5.7c-10.1,0.1-20.1,0.1-30.2,0c-3.8,0-5.4-1.6-5.4-5.4
	c-0.1-10.1-0.1-20.1,0-30.2c0-4,1.6-5.5,5.7-5.5c9.9-0.1,19.9-0.1,29.8,0c4,0,5.5,1.6,5.6,5.6C136.6,110.1,136.5,115,136.5,120z
	 M104.5,108.5c0,7.9,0,15.4,0,23.1c7.8,0,15.4,0,23.1,0c0-7.8,0-15.4,0-23.1C119.9,108.5,112.4,108.5,104.5,108.5z"/>
<path class="st0" d="M95.5,250.8c0-5-0.1-9.9,0-14.9c0.1-4.3,1.5-5.7,5.8-5.7c9.8,0,19.6,0,29.4,0c4.3,0,5.8,1.4,5.8,5.7
	c0,9.9,0,19.9,0,29.8c0,4-1.5,5.6-5.6,5.6c-9.9,0.1-19.9,0.1-29.8,0c-4.2,0-5.6-1.6-5.7-5.9C95.4,260.5,95.5,255.6,95.5,250.8z
	 M104.6,238.8c0,8.2,0,15.8,0,23.2c7.9,0,15.4,0,23.3,0c0-7.2,0.1-14-0.1-20.9c0-0.8-1.3-2.2-2.1-2.3
	C118.7,238.8,111.8,238.8,104.6,238.8z"/>
<path class="st0" d="M115.7,336.4c-4.8,0-9.7,0-14.5,0c-4.1,0-5.7-1.4-5.7-5.4c-0.1-10.1-0.1-20.1,0-30.2c0-3.8,1.5-5.3,5.4-5.4
	c10.2-0.1,20.4,0,30.6,0c3.4,0,5.1,1.8,5.1,5.2c0,10.2,0,20.4,0,30.6c0,3.4-1.7,5.2-5.2,5.2C126.2,336.4,120.9,336.4,115.7,336.4z
	 M104.5,304.3c0,8,0,15.5,0,23.3c7.8,0,15.3,0,23.1,0c0-7.9,0-15.5,0-23.3C119.8,304.3,112.3,304.3,104.5,304.3z"/>
<path class="st0" d="M116.4,360.8c5,0,9.9,0,14.9,0c3.5,0,5.2,1.7,5.2,5.1c0,10.2,0,20.4,0,30.6c0,3.5-1.7,5.3-5.1,5.3
	c-10.3,0.1-20.6,0-30.9,0c-3.5,0-5.1-2-5.1-5.4c0-10.1-0.1-20.1,0-30.2c0-4,1.6-5.4,5.7-5.4C106.2,360.8,111.3,360.8,116.4,360.8z
	 M104.4,392.7c7.7,0,15.3,0,23.1,0c0-7.7,0-15.4,0-23c-7.9,0-15.4,0-23.1,0C104.4,377.4,104.4,384.9,104.4,392.7z"/>
<path class="st0" d="M191.7,120.3c0,5.1,0,10.2,0,15.3c0,3.3-1.7,5-4.9,5c-10.3,0.1-20.6,0-30.9,0c-3.2,0-5-1.6-5-4.9
	c0-10.4,0-20.9,0-31.3c0-3.3,1.9-4.8,5.1-4.9c10.2,0,20.4-0.1,30.6,0c3.8,0,5.2,1.6,5.2,5.5C191.8,110.1,191.7,115.2,191.7,120.3z
	 M182.9,131.7c0-7.9,0-15.5,0-23.1c-7.9,0-15.5,0-23.2,0c0,7.9,0,15.5,0,23.1C167.5,131.7,175,131.7,182.9,131.7z"/>
<path class="st0" d="M191.7,250.8c0,5,0,9.9,0,14.9c0,3.9-1.4,5.5-5.2,5.5c-10.2,0.1-20.4,0.1-30.6,0c-3.4,0-5.2-1.7-5.2-5.2
	c0-10.2,0-20.4,0-30.6c0-3.9,1.5-5.3,5.4-5.3c10.1-0.1,20.1-0.1,30.2,0c3.9,0,5.3,1.5,5.3,5.3C191.8,240.6,191.7,245.7,191.7,250.8z
	 M183,239c-7.9,0-15.5,0-23.2,0c0,7.9,0,15.5,0,23.1c7.9,0,15.5,0,23.2,0C183,254.4,183,246.9,183,239z"/>
<path class="st0" d="M115.8,205.8c-5,0-9.9,0.1-14.9,0c-3.8-0.1-5.4-1.5-5.4-5.3c-0.1-10.1-0.1-20.1,0-30.2c0-3.9,1.5-5.3,5.3-5.4
	c10.2-0.1,20.4,0,30.6,0c3.4,0,5.2,1.7,5.2,5.1c0,10.2,0,20.4,0,30.6c0,3.4-1.6,5.2-5.1,5.2C126.2,205.8,121,205.8,115.8,205.8z
	 M104.5,196.9c8,0,15.6,0,23.2,0c0-7.9,0-15.5,0-23.1c-7.8,0-15.4,0-23.2,0C104.5,181.6,104.5,189.1,104.5,196.9z"/>
<path class="st0" d="M171.5,360.8c5.1,0,10.2,0,15.3,0c3.3,0,5,1.6,5,4.9c0,10.4,0,20.9,0,31.3c0,3.2-1.8,4.7-4.8,4.7
	c-10.4,0.1-20.9,0.1-31.3,0c-3.2,0-4.8-1.8-4.8-5.1c0-10.3,0-20.6,0-30.9c0-3.3,1.7-4.9,5-4.9C161,360.8,166.3,360.8,171.5,360.8z
	 M159.7,392.8c7.9,0,15.5,0,23.2,0c0-7.8,0-15.4,0-23.1c-7.9,0-15.5,0-23.2,0C159.7,377.5,159.7,385.1,159.7,392.8z"/>
<path class="st0" d="M191.7,315.8c0,5,0,9.9,0,14.9c0,4.4-1.3,5.7-5.6,5.8c-9.9,0-19.9,0-29.8,0c-4,0-5.4-1.3-5.4-5.2
	c-0.1-10.2,0-20.4,0-30.5c0-3.5,1.6-5.2,5.1-5.2c10.2,0,20.4-0.1,30.5,0c3.9,0,5.2,1.4,5.3,5.4C191.8,305.8,191.7,310.8,191.7,315.8
	z M159.6,327.5c8.1,0,15.7,0,23.3,0c0-7.9,0-15.5,0-23c-7.9,0-15.6,0-23.3,0C159.6,312.3,159.6,319.8,159.6,327.5z"/>
<path class="st0" d="M170.9,205.8c-5,0-9.9,0-14.9,0c-3.5,0-5.2-1.6-5.2-5.1c0-10.3,0-20.6,0-30.9c0-3.3,1.7-4.9,4.9-4.9
	c10.3,0,20.6,0,30.9,0c3.5,0,5,1.8,5,5.2c0,10.2,0,20.4,0,30.5c0,3.5-1.7,5.1-5.1,5.1C181.4,205.8,176.2,205.8,170.9,205.8z
	 M182.9,197c0-8,0-15.5,0-23.2c-7.9,0-15.6,0-23.2,0c0,7.9,0,15.4,0,23.2C167.5,197,175,197,182.9,197z"/>
<path class="st0" d="M314.5,317.7c-20.5,0-41,0-61.5,0c-6.2,0-7.1-0.9-7.1-7c0-11.6,0-23.2,0-34.8c0-4.9,1.2-6.1,6.1-6.1
	c41.9,0,83.8,0,125.7,0c5.1,0,6.2,1.2,6.2,6.4c0,11.7,0,23.4,0,35.1c0,5.1-1.2,6.3-6.4,6.3C356.5,317.7,335.5,317.7,314.5,317.7z
	 M254.6,308.7c40.2,0,80.2,0,120.2,0c0-10.1,0-20,0-30c-40.2,0-80.1,0-120.2,0C254.6,288.8,254.6,298.6,254.6,308.7z"/>
<path class="st0" d="M297,171.5c12.3-12.3,23.9-24.1,35.6-35.8c3.2-3.2,6.4-6.5,9.7-9.7c3-2.9,4.8-2.9,7.8,0.1
	c4.1,4,8.2,8,12.1,12.1c2.7,2.8,2.8,4.7,0,7.5c-20.4,20.5-40.8,40.9-61.3,61.3c-2.7,2.7-4.9,2.7-7.6,0c-8.7-8.6-17.3-17.2-25.9-25.9
	c-2.7-2.7-2.7-4.9-0.1-7.6c4-4.1,8.1-8.1,12.1-12.1c3-2.9,4.9-3,7.8-0.1C290.5,164.5,293.5,167.8,297,171.5z M346.2,134.5
	c-1.1,1-2,1.8-2.9,2.7c-13.9,13.9-27.7,27.7-41.6,41.6c-3.7,3.7-5.5,3.7-9.2,0c-3-2.9-5.8-5.9-8.7-8.8c-2.6,2.7-5,5.2-6.9,7.2
	c6.7,6.8,13.6,13.7,20,20.1c18.5-18.5,37.2-37.2,55.7-55.7C350.7,139.5,348.5,137.1,346.2,134.5z"/>
</svg>
