<?xml version="1.0" encoding="utf-8"?>
<!-- Generator: Adobe Illustrator 24.0.2, SVG Export Plug-In . SVG Version: 6.00 Build 0)  -->
<svg version="1.1" id="Layer_1" xmlns="http://www.w3.org/2000/svg" xmlns:xlink="http://www.w3.org/1999/xlink" x="0px" y="0px"
	 viewBox="0 0 500 500" style="enable-background:new 0 0 500 500;" xml:space="preserve">
<style type="text/css">
	.st0{fill:#8331A7;}
</style>
<path class="st0" d="M112.2,441.7c-6.7-2-12.4-5.4-15.4-12c-1.5-3.2-2-6.9-3.1-10.7c-1.6-0.1-3.5-0.2-5.5-0.3
	c-11.4-0.7-19.9-8.7-20.4-20c-0.5-11.8-0.5-23.7,0-35.5c0.5-11.7,9.7-20,21.4-20.2c1.6,0,3.2,0,5.2,0c0-1.8-0.1-3.3,0-4.7
	c0.2-4.1,2.4-6.5,5.7-6.5c3.3,0,5.5,2.5,5.5,6.6c0,22.2,0,44.4,0,66.6c0,4.7-0.1,9.5,0,14.2c0.2,7.3,4.3,11.3,11.6,11.3
	c45.4,0,90.8,0,136.3,0c7.2,0,11.5-4,11.5-10.9c0-41.7,0-83.3,0-125c0-0.5-0.1-1-0.1-1c-5.8,0.7-11.5,1.3-17.6,2c0,1.5,0,3.3,0,5.1
	c9.9,3.4,10.2,9.3,8.8,18.9c-0.7,4.9-4.7,8-9.9,8.1c-9.6,0.2-19.2,0.3-28.8,0c-6.4-0.2-10.3-4.6-10.2-11c0-3.3,0.2-6.8,1.3-9.9
	c0.6-1.9,2.7-4,4.6-4.5c4.2-1.2,3.8-3.8,3.2-7c-20.6,0-41.2,0-61.9,0c0,1.9,0,3.7,0,5.5c10.7,3,10.5,12.4,8.4,20.3
	c-1.1,4.2-4.8,6.5-9.1,6.6c-9.7,0.2-19.5,0.3-29.2,0c-6.2-0.2-9.9-4.5-10.2-10.7c0-0.7,0-1.5,0-2.2c0-8.5,1.3-10.6,9.2-14
	c0-1.7,0-3.4,0-5.1c-5.8-0.7-11.5-1.3-17.6-2c0,0.5-0.2,1.6-0.2,2.8c0,5,0.1,10-0.1,15c-0.1,3.2-2.2,5.1-5.3,5.2
	c-3,0.1-4.9-1.6-5.6-4.5c-0.3-1.2-0.2-2.5-0.2-3.7c0-22,0-43.9,0-65.9c0-14.9,8.9-23.7,23.8-23.7c12.5,0,25,0,37.4,0
	c1.3,0,2.7,0,4.4,0c0-3.2,0-6,0-8.9c0.2-14.4,10.8-25.5,24.7-25.7c14.2-0.3,25.3,10.3,26.1,24.8c0.2,3.1,0,6.2,0,9.6
	c12.1,0,23.8,0,36.1,0c0-1.4,0-2.7,0-4.1c0-14.7,0-29.4,0-44.2c0-15.7,9.9-25.6,25.8-25.6c10.2,0,20.4,0,31.1,0c0-5.9,0-11.6,0-17.3
	c0-1.7-0.1-3.5,0-5.2c0.2-4.5,0.4-8.5-4.6-11.3c-2.3-1.3-4-5-4.4-7.8c-1.5-11-1.3-22,6-31.4c6.4-8.3,14.9-12.8,25.4-13
	c10.4-0.2,20.7-0.2,31.1,0c17.7,0.3,31.6,14.4,31.9,32.1c0.1,2.9,0,5.7,0,8.6c0.1,6-2.4,10.5-7.4,13.8c-0.9,0.6-2,1.8-2,2.7
	c-0.1,9.5-0.1,18.9-0.1,28.9c1.6,0,3,0,4.3,0c9.5,0,19-0.1,28.5,0c13.5,0.2,23.6,9.6,24.1,23.1c0.4,11.8,0.2,23.7,0.1,35.6
	c0,3.8-2.3,6.3-5.5,6.3c-3.3,0.1-5.6-2.5-5.7-6.5c-0.1-10.7,0-21.5,0-32.2c0-10.3-4.8-15-15.1-15c-45.8,0-91.6,0-137.4,0
	c-10.2,0-14.9,4.7-14.9,14.9c0,15,0,29.9,0,44.9c0,2.3,0.5,3.4,3,4.1c9.4,2.8,15.2,10.9,15.2,21.2c0,32.4,0,64.9,0,97.3
	c0,1.5,0,2.9,0,4.6c3,0,5.5,0,8.6,0c0-1.6,0-3.2,0-4.8c0-52.7,0-105.3,0-158c0-1.5,0-3,0.1-4.5c0.4-3,2.2-4.7,5.2-4.9
	c3.2-0.1,5.2,1.6,5.7,4.7c0.2,1.5,0.2,3,0.2,4.5c0,54.8,0,109.5,0,164.3c0,2.7,1,4.8,2.3,7.1c2.2,3.9,4.3,8.4,4.6,12.7
	c0.6,11.3,0.2,22.7,0.2,34c0,2-0.5,3.9-0.8,6.4c1.5,0,2.8,0,4.1,0c34.7,0,69.4,0,104.1,0c10.4,0,15-4.6,15-15.1
	c0-51.7,0-103.3,0-155c0-1.4,0-2.8,0.1-4.1c0.3-3.3,2.6-5.5,5.5-5.5c2.9,0,5.2,2.2,5.5,5.5c0.1,0.9,0.1,1.7,0.1,2.6
	c0,52.3,0,104.6,0,156.8c0,13.5-7.5,23.5-19.5,25.4c-4.6,0.7-9.4,0.1-14.5,0.1c0,3.9,0.1,7.1,0,10.3c-0.2,8.9-6.8,15.5-15.4,15.5
	c-8.6,0-15.2-6.6-15.3-15.5c-0.1-3.1,0-6.2,0-9.6c-20,0-39.8,0-60.4,0c0,3.7,0.3,7.5-0.1,11.2c-1,11.7-14.1,17.9-23.8,11.3
	c-4.6-3.1-6.7-7.6-6.9-13c-0.1-2,0-4,0-6.3c-1.5,0-2.8,0-4.4,0c-0.2,1.6-0.2,3.4-0.6,5c-1.8,7.9-6.3,13.4-14,16.2
	c-1,0.4-2,0.9-3,1.3C210.1,441.7,161.1,441.7,112.2,441.7z M154.4,230c0,18.1,0,35.8,0,53.6c20.8,0,41.3,0,61.9,0
	c0-17.9,0-35.7,0-53.6C195.6,230,175.2,230,154.4,230z M315.1,144.3c18,0,35.5,0,53.4,0c0-9.9,0-19.5-0.1-29.2c0-0.8-1.2-1.7-2-2.3
	c-4.7-3.2-7.2-7.4-7.2-13.2c0-2.2-0.1-4.5,0-6.7c0.2-3.2-1.1-4.5-4.4-4.4c-6.9,0.1-13.7,0-20.6,0c-11.2,0-9.6-1.1-9.6,9.5
	c0,6.4-2.1,11.6-7.9,15.1c-0.8,0.5-1.6,1.6-1.6,2.5C315.1,125.1,315.1,134.5,315.1,144.3z M247.3,283.7c2.8,0,5.4,0.1,8,0
	c5.5-0.3,9.6-4.4,9.7-9.9c0.1-11.3,0.1-22.7,0-34c-0.1-5.1-3.7-9.1-8.6-9.7c-2.9-0.4-5.9-0.1-9-0.1
	C247.3,247.8,247.3,265.5,247.3,283.7z M123.4,283.5c0-18.1,0-35.8,0-53.7c-1.7,0-3,0-4.4,0c-9.7,0-13.3,3.6-13.3,13.3
	c0,8.4,0,16.7,0,25.1c0,12.9,3,15.8,16,15.5C122.1,283.7,122.6,283.6,123.4,283.5z M378.1,94.2C378.1,94.2,378.1,94.2,378.1,94.2
	c0-0.6,0-1.2,0-1.9c-0.1-13.8-8.9-22.7-22.7-22.7c-9.6,0-19.2-0.1-28.8,0c-10.4,0.1-18.9,7.4-20.6,17.7c-0.6,3.9-0.4,7.9-0.5,11.9
	c0,2.6,1.3,4.5,4,4.4c2.7,0,3.8-2,3.9-4.6c0-2.5,0-5,0-7.5c0.2-8.6,5.4-14.1,13.9-14.3c9.7-0.2,19.5-0.2,29.2,0
	c8.3,0.2,13.6,5.8,13.9,14.1c0.1,2.9-0.4,5.8,0.2,8.6c0.3,1.5,2.3,3.3,3.8,3.5c1,0.1,3-1.9,3.5-3.4
	C378.5,98.3,378.1,96.1,378.1,94.2z M276.5,407.2c10.2,1.8,16.1-3.3,15.6-12.9c-0.5-9.3-0.1-18.7-0.1-28.1c0-9.2-6.4-13.9-15.5-11.4
	C276.5,372.1,276.5,389.5,276.5,407.2z M94.2,407.5c0-18,0-35.6,0-53.1c-10-0.9-15,2.5-15.2,10.5c-0.2,10.7-0.2,21.4,0,32.1
	c0.1,6.4,4,10.1,10.3,10.5C90.8,407.6,92.3,407.5,94.2,407.5z M135.2,230c0,23.8,0,47.2,0,70.6c2.7,0,5.1,0,7.5,0
	c0-23.7,0-47.1,0-70.6C140.2,230,137.9,230,135.2,230z M171.4,218.4c9.6,0,18.7,0,28.5,0c-0.3-4.4-0.1-8.7-0.9-12.7
	c-1.4-6.8-7.9-11-15.1-10.4c-6.6,0.6-12.1,6.1-12.5,12.8C171.2,211.4,171.4,214.7,171.4,218.4z M235.6,300.7c0-23.7,0-47.1,0-70.6
	c-2.6,0-5,0-7.5,0c0,23.7,0,47,0,70.6C230.6,300.7,232.9,300.7,235.6,300.7z M218.6,316.1c9.2,0,17.9,0,26.9,0
	c-0.1-1.5-0.2-2.6-0.3-3.7c-9.1,0-17.9,0-26.6,0C218.6,313.7,218.6,314.8,218.6,316.1z M125.7,316.2c9.1,0,17.8,0,26.6,0
	c0-1.4,0-2.6,0-3.8c-9,0-17.8,0-26.6,0C125.7,313.7,125.7,314.8,125.7,316.2z M300.4,415.6c-2.4,0-4.3-0.1-6.3,0.1
	c-0.7,0.1-1.8,0.9-1.8,1.4c-0.1,3.2-0.3,6.5,0.3,9.7c0.3,1.2,2.6,2.9,4,2.8c1.3-0.1,3.4-1.9,3.6-3.3
	C300.7,422.9,300.4,419.4,300.4,415.6z M383.3,415.8c0,3.5-0.1,6.8,0,10c0.1,2.4,1.5,3.9,4,4c2.5,0,4-1.4,4.2-3.8
	c0.2-3.3,0-6.6,0-10.1C388.7,415.8,386.2,415.8,383.3,415.8z"/>
<path class="st0" d="M185.4,342c15.1,0,30.2,0,45.3,0c9.4,0,14.8,5.5,14.8,14.9c0,12.8,0,25.7,0,38.5c0,9.1-5.6,14.8-14.6,14.8
	c-30.3,0-60.6,0-90.9,0c-9,0-14.5-5.4-14.6-14.4c-0.1-13.1-0.1-26.2,0-39.3c0.1-9.3,5.5-14.5,14.8-14.5
	C155.3,342,170.4,342,185.4,342z M185.4,353.2c-14.8,0-29.7,0.1-44.5-0.1c-3.3,0-4.4,1.2-4.3,4.4c0.1,12.3,0.1,24.7,0,37
	c0,3.4,1.2,4.5,4.6,4.5c29.5-0.1,59.1-0.1,88.6,0c3.5,0,4.6-1.2,4.5-4.6c-0.1-12.2-0.2-24.4,0-36.6c0.1-3.7-1.3-4.7-4.8-4.7
	C214.8,353.3,200.1,353.2,185.4,353.2z"/>
<path class="st0" d="M330.3,275.1c0,31.7,0,63.4,0,95c0,1.4,0.4,3.1-0.2,4c-1.2,1.8-2.8,3.8-4.7,4.5c-2.6,0.9-4.9-0.7-5.8-3.4
	c-0.5-1.5-0.5-3.2-0.5-4.8c0-63.9,0-127.7,0-191.6c0-1.4,0-2.8,0.3-4.1c0.7-2.9,2.7-4.4,5.8-4.2c3,0.2,4.7,2,5.1,5
	c0.1,1.2,0.1,2.5,0.1,3.7C330.3,211.2,330.3,243.2,330.3,275.1z"/>
<path class="st0" d="M364.6,274.7c0,31.8,0,63.6,0,95.4c0,1.2,0.1,2.5-0.1,3.7c-0.4,2.9-2.1,4.8-5.2,5c-3.2,0.2-5.2-1.6-5.9-4.6
	c-0.3-1.2-0.1-2.5-0.1-3.7c0-63.9,0-127.7,0-191.6c0-1.2-0.1-2.5,0.1-3.7c0.7-3,2.6-4.8,5.9-4.6c3.1,0.2,4.7,2,5.1,5
	c0.2,1.2,0.1,2.5,0.1,3.7C364.6,211.1,364.6,242.9,364.6,274.7z"/>
<path class="st0" d="M387.7,274.3c0-31.8,0-63.6,0-95.4c0-1.2-0.4-2.8,0.2-3.7c1.3-1.8,2.8-3.8,4.7-4.5c2.6-0.9,4.9,0.7,5.8,3.4
	c0.5,1.5,0.5,3.2,0.5,4.8c0,63.9,0,127.7,0,191.6c0,1.4,0.1,2.8-0.3,4.1c-0.8,2.9-2.7,4.5-5.8,4.2c-3-0.2-4.7-2-5.1-5
	c-0.2-1.2-0.1-2.5-0.1-3.7C387.7,338.2,387.7,306.2,387.7,274.3z"/>
</svg>
