<?xml version="1.0" encoding="utf-8"?>
<!-- Generator: Adobe Illustrator 24.0.2, SVG Export Plug-In . SVG Version: 6.00 Build 0)  -->
<svg version="1.1" id="Layer_1" xmlns="http://www.w3.org/2000/svg" xmlns:xlink="http://www.w3.org/1999/xlink" x="0px" y="0px"
	 viewBox="0 0 500 500" style="enable-background:new 0 0 500 500;" xml:space="preserve">
<style type="text/css">
	.st0{fill:#8331A7;}
</style>
<path class="st0" d="M212.2,58c32.1,10.2,64.3,20.5,96.4,30.7c23.4,7.5,46.8,14.9,70.1,22.4c18,5.8,25.6,20.9,19.9,38.9
	c-22.5,70.6-45.1,141.2-67.5,211.8c-0.7,2.2-1.1,4.6-1.1,6.9c-0.1,14,0,27.9-0.1,41.9c-0.1,18.6-12.2,30.6-30.8,30.6
	c-56.1,0-112.3,0-168.4,0c-18.2,0-30.6-12.3-30.6-30.5c0-89.3,0-178.6,0-268c0-18.2,12.3-30.6,30.5-30.6c11.9-0.1,23.7-0.1,35.6,0.1
	c2.6,0,3.6-0.9,4.4-3.3c2.9-9.7,6.2-19.2,9.2-28.8c3.5-11.5,10.9-18.8,22.6-21.5c0.3-0.1,0.6-0.4,0.9-0.6
	C206.2,58,209.2,58,212.2,58z M110.5,277c0,44.4,0,88.8,0,133.2c0,13.2,7.4,20.6,20.6,20.6c55.9,0,111.8,0,167.7,0
	c13.5,0,20.8-7.2,20.8-20.7c0-89,0-177.9,0-266.9c0-13.4-7.5-20.8-20.9-20.8c-55.6,0-111.3,0-166.9,0c-13.9,0-21.3,7.4-21.3,21.2
	C110.5,188.2,110.5,232.6,110.5,277z M329.9,328.5c0.2,0,0.5,0.1,0.7,0.1c0.3-0.8,0.6-1.6,0.9-2.4c19.2-60.1,38.4-120.3,57.6-180.4
	c3.5-11.1-1.5-20.9-12.7-24.4c-54-17.3-107.9-34.5-161.9-51.7c-11.1-3.5-20.9,1.6-24.6,12.6c-2.2,6.7-4.3,13.5-6.5,20.3
	c-1,3-1.9,6.1-3,9.7c2,0,3.5,0,5,0c37.7,0,75.4,0,113,0c3.2,0,6.5,0.2,9.6,1c13.6,3.3,21.9,14.6,21.9,29.6c0,55.8,0,111.5,0,167.3
	C329.9,316.2,329.9,322.3,329.9,328.5z"/>
<path class="st0" d="M145.9,221.7c-0.1-38.2,31.1-69.2,69.7-69.2c37.5,0,68.5,31.2,68.6,69.1c0,37.9-30.8,69.1-68.5,69.2
	C177.2,290.9,146,260,145.9,221.7z M209.6,234.8c0-8.8,0-17.4,0-26.4c-7.6,0-15.2-0.1-22.7,0.1c-0.8,0-2.2,1.6-2.2,2.5
	c-0.2,7.1-0.2,14.1,0,21.2c0,0.9,1.7,2.5,2.6,2.5C194.7,234.9,202,234.8,209.6,234.8z M220.6,208.6c0,8.9,0,17.4,0,25.9
	c8,0,15.8,0,24,0c0-8.8,0-17.3,0-25.9C236.1,208.6,228.5,208.6,220.6,208.6z M255.3,208.4c0,9.1,0,17.6,0,26.4
	c5,0,10.1,0.1,15.2-0.1c0.8,0,2.2-1.4,2.2-2.2c0.2-7.3,0.2-14.6,0-21.9c0-0.8-1.4-2.1-2.2-2.1C265.3,208.3,260.3,208.4,255.3,208.4z
	 M173.9,234.7c0-8.9,0-17.4,0-26c-5.2,0-10.6,0-16,0c-2.1,8.8-2.2,17.4,0.1,26C163.4,234.7,168.7,234.7,173.9,234.7z M188,245.4
	c4.6,12.2,11.5,22.1,21.6,30.3c0-10.6,0-20.4,0-30.3C202.5,245.4,195.5,245.4,188,245.4z M209.7,167.5
	c-10.2,8.4-17.4,18.2-21.6,30.3c7.5,0,14.5,0,21.6,0C209.7,187.7,209.7,177.9,209.7,167.5z M234.1,276.9
	c15.9-5.6,27.3-15.9,34.7-31.6c-5.5,0-10.1-0.1-14.7,0.1c-0.8,0-2.2,0.8-2.4,1.5C247.9,258,242,268,234.1,276.9z M268.9,198
	c-7.5-15.7-18.8-26.1-34.8-31.6c7.9,9,13.9,19,17.7,30.3c0.2,0.6,1.2,1.2,1.9,1.2C258.5,198,263.3,198,268.9,198z M220.5,274.9
	c9.7-8.4,16.4-17.8,20.6-29.5c-7.1,0-13.8,0-20.6,0C220.5,255.2,220.5,264.6,220.5,274.9z M220.4,197.7c7,0,13.7,0,20.7,0
	c-4.5-11.6-10.8-21.3-20.7-29.2C220.4,178.7,220.4,188.1,220.4,197.7z M161.4,245.6c7.1,14.9,17.9,25.1,33.7,31.2
	c-2.9-3.8-5.4-6.7-7.6-9.9c-2.2-3.3-4.1-6.8-6-10.3c-2-3.7-2.8-9.2-5.8-10.9c-3.4-1.9-8.7-0.4-13.2-0.4
	C162.3,245.3,162.2,245.4,161.4,245.6z M177,197.9c3.7-11.5,9.5-21.8,17.6-30.9c-15.2,5.6-26.1,15.9-33.3,30.9
	C166.7,197.9,171.6,197.9,177,197.9z"/>
<path class="st0" d="M214.8,372.5c-20.6,0-41.1,0-61.7,0c-1.1,0-2.3,0.1-3.4-0.1c-2.7-0.4-4.3-2-4.5-4.7c-0.2-2.7,1.1-4.6,3.8-5.2
	c1.3-0.3,2.7-0.3,4.1-0.3c41.3,0,82.5,0,123.8,0c1.4,0,2.8,0,4.1,0.3c2.6,0.7,4,2.6,3.8,5.3c-0.2,2.7-1.8,4.3-4.5,4.7
	c-1.1,0.2-2.2,0.1-3.4,0.1C256.2,372.5,235.5,372.5,214.8,372.5z"/>
<path class="st0" d="M215.2,335.9c-20.6,0-41.1,0-61.7,0c-1.4,0-3.1,0.4-4-0.2c-1.6-1.2-3.8-3-3.9-4.6c-0.1-1.6,1.9-3.6,3.3-5
	c0.7-0.7,2.4-0.4,3.6-0.4c41.6,0,83.3,0,124.9,0c1.2,0,2.9-0.3,3.6,0.4c1.5,1.3,3.3,3.1,3.6,4.9c0.5,2.6-1.4,4.4-4.1,4.9
	c-1.3,0.2-2.7,0.2-4.1,0.2C256,335.9,235.6,335.9,215.2,335.9z"/>
<path class="st0" d="M214.9,409.1c-11.3,0-22.7,0-34,0c-2.7,0-5-0.7-6-3.5c-1.2-3.2,0.8-6.3,4.4-6.9c1.3-0.2,2.7-0.1,4.1-0.1
	c21.2,0,42.4,0,63.6,0c1.1,0,2.3-0.1,3.4,0c3.2,0.3,5.4,2.5,5.2,5.3c-0.3,3.2-2.2,5-5.4,5c-8.1,0.1-16.2,0-24.3,0
	C222.2,409.1,218.6,409.1,214.9,409.1z"/>
</svg>
