<?xml version="1.0" encoding="utf-8"?>
<!-- Generator: Adobe Illustrator 26.3.1, SVG Export Plug-In . SVG Version: 6.00 Build 0)  -->
<svg version="1.1" id="Layer_1" xmlns="http://www.w3.org/2000/svg" xmlns:xlink="http://www.w3.org/1999/xlink" x="0px" y="0px"
	 viewBox="0 0 500 500" style="enable-background:new 0 0 500 500;" xml:space="preserve">
<style type="text/css">
	.st0{fill:#8331A7;}
</style>
<g>
	<path class="st0" d="M141.7,61.4c2.3,2,4.6,4.1,3.1,7.6c-1.4,3.5-4.3,3.7-7.5,3.7c-10.3-0.1-20.6,0-30.9,0
		c-8.4,0-13.7,5.2-13.7,13.7c0,51.3,0,102.6,0,153.9c0,6,2.5,8.5,8.4,8.7c1,0,2,0,3,0c96.4,0,192.9,0,289.3,0c1.6,0,3.3,0,4.9-0.1
		c3.8-0.5,6.1-2.8,6.5-6.7c0.1-1.1,0.1-2.3,0.1-3.4c0-50.2,0-100.3,0-150.5c0-11-4.6-15.5-15.6-15.5c-72.8,0-145.6,0-218.4,0
		c-0.9,0-1.8,0-2.6,0c-3.2,0.2-6.2-0.4-7.4-3.8c-1.3-3.5,0.8-5.7,3.4-7.5c77.5,0,154.9,0,232.4,0c1.6,0.6,3.2,1.2,4.8,1.9
		c9.9,4.6,14.7,12.6,14.7,23.4c0,32.3,0,64.6,0,96.9c0,18.6,0,37.2,0,55.8c0,4.9-0.8,9.4-3.8,13.5c-0.5,0.7-0.4,2.4,0.1,3.1
		c2.6,3.8,3.7,7.9,3.7,12.4c0,28.3,0,56.6,0,84.9c0,1.5-0.1,3.1-0.6,4.4c-1,2.5-3.1,3.6-5.7,3.3c-2.7-0.3-4.3-1.9-4.8-4.6
		c-0.2-1.2-0.1-2.5-0.1-3.8c0-27.7,0-55.3,0-83c0-7.5-2.2-9.7-9.7-9.7c-97.6,0-195.1,0-292.7,0c-7.7,0-9.8,2.1-9.8,9.9
		c0,50.4,0,100.8,0,151.3c0,10.2,4.8,15,15,15c94,0,188.1,0,282.1,0c10.2,0,15-4.8,15-15c0-12.7,0-25.4,0-38.1c0-4.5,2-7.1,5.4-7.2
		c3.5-0.1,5.8,2.7,5.8,7.3c0,13.2,0.1,26.4,0,39.6c-0.1,14.4-10.4,24.7-24.9,24.7c-95.1,0-190.1,0-285.2,0
		c-14.2,0-24.7-10.3-24.7-24.4c-0.1-51.8-0.1-103.6,0.1-155.4c0-3.7,1.7-7.5,3.3-11c0.8-1.8,1-2.7,0.1-4.6
		c-1.6-3.4-3.3-7.3-3.3-10.9c-0.2-51.8-0.2-103.6-0.1-155.4c0-11.6,6.7-20.3,17.9-23.8c0.6-0.2,1.1-0.5,1.6-0.8
		C114.6,61.4,128.2,61.4,141.7,61.4z"/>
	<path class="st0" d="M110.1,348.1c0-20.7,0-41.5,0-62.2c0-8.5,3.9-12.4,12.4-12.5c29.9,0,59.9,0,89.8,0c8.3,0,12.3,4,12.3,12.2
		c0,41.7,0,83.5,0,125.2c0,8.3-4,12.2-12.3,12.2c-30.1,0-60.1,0-90.2,0c-8.1,0-12.1-4-12.1-12C110,390.1,110.1,369.1,110.1,348.1z
		 M213,411.7c0-42.5,0-84.7,0-126.8c-30.7,0-61,0-91.3,0c0,42.4,0,84.5,0,126.8C152.2,411.7,182.4,411.7,213,411.7z"/>
	<path class="st0" d="M317.2,285.3c20.9,0,41.7,0,62.6,0c1.5,0,3.5-0.3,4.4,0.5c1.5,1.4,3.3,3.5,3.3,5.3c-0.1,1.7-2,3.8-3.7,4.9
		c-1.1,0.8-3.1,0.6-4.8,0.6c-41.2,0-82.4,0-123.6,0c-0.6,0-1.3,0-1.9,0c-4.3-0.2-6.9-2.5-6.8-5.9c0.1-3.3,2.6-5.4,6.8-5.4
		C274.7,285.3,296,285.3,317.2,285.3z"/>
	<path class="st0" d="M298.5,382.7c-14.6,0-29.1,0-43.7,0c-1.6,0-3.7,0.2-4.7-0.7c-1.5-1.5-3.4-3.9-3.1-5.6c0.2-1.8,2.7-3.4,4.4-4.7
		c0.6-0.5,1.9-0.1,3-0.2c29.6,0,59.3,0,88.9,0c0.9,0,1.8-0.1,2.6,0.1c2.8,0.4,4.5,2.1,4.8,4.9c0.3,2.8-1,4.9-3.7,5.8
		c-1.3,0.4-2.7,0.5-4.1,0.5C328.2,382.7,313.3,382.7,298.5,382.7z"/>
	<path class="st0" d="M299.1,400.1c14.8,0,29.6,0,44.5,0c4.9,0,7.3,1.9,7.3,5.6c0,3.7-2.5,5.7-7.3,5.7c-29.9,0-59.8,0-89.7,0
		c-4.6,0-7.3-2.3-7.1-5.9c0.1-3.3,2.7-5.4,6.8-5.4C268.7,400.1,283.9,400.1,299.1,400.1z"/>
	<path class="st0" d="M270.8,314c5.8,0,11.5,0,17.3,0c4.1,0,6.6,2.2,6.7,5.6c0,3.3-2.6,5.7-6.6,5.7c-11.7,0.1-23.3,0.1-35,0
		c-4,0-6.5-2.5-6.4-5.8c0.1-3.2,2.6-5.4,6.4-5.4C259,314,264.9,314,270.8,314z"/>
	<path class="st0" d="M363.9,314c5.8,0,11.5,0,17.3,0c3.9,0,6.3,2.1,6.4,5.4c0.1,3.4-2.4,5.9-6.4,5.9c-11.7,0.1-23.3,0.1-35,0
		c-4.1,0-6.6-2.4-6.7-5.7c0-3.3,2.5-5.6,6.6-5.6C352.1,314,358,314,363.9,314z"/>
	<path class="st0" d="M270.8,342.7c5.8,0,11.5,0,17.3,0c4.1,0,6.6,2.3,6.6,5.6c0,3.3-2.6,5.6-6.7,5.7c-11.5,0.1-23.1,0.1-34.6,0
		c-4.3,0-6.9-2.4-6.8-5.9c0.1-3.3,2.6-5.3,6.8-5.4C259.3,342.6,265.1,342.7,270.8,342.7z"/>
	<path class="st0" d="M363.8,342.7c5.8,0,11.5,0,17.3,0c4.1,0,6.6,2.3,6.5,5.7c0,3.4-2.6,5.6-6.7,5.6c-11.5,0.1-23.1,0.1-34.6,0
		c-4.1,0-6.7-2.3-6.8-5.6c-0.1-3.4,2.5-5.7,6.9-5.7C352.3,342.6,358.1,342.7,363.8,342.7z"/>
	<path class="st0" d="M343.6,120.4c4,0.3,6.1,2.5,7.4,6.1c6.6,17.8,13.4,35.5,20.1,53.2c1.6,4.2,3.2,8.4,4.7,12.7
		c1.5,4.2,0.4,7.3-2.9,8.5c-3.3,1.1-6.1-0.5-7.7-4.7c-1.5-3.8-2-9.3-4.8-11.1c-3.2-2-8.5-0.8-12.8-0.9c-5.7-0.1-11.3,0.2-17-0.1
		c-3-0.1-4.6,0.7-5.5,3.7c-0.9,3.1-2.2,6.1-3.4,9.2c-1.5,3.6-4.4,5-7.5,3.9c-3-1.1-4.4-4.3-3.1-7.8c8.5-22.5,17.1-45,25.7-67.5
		C338.1,122.2,340.4,120.7,343.6,120.4z M331,172.6c8.7,0,16.8,0,25.3,0c-4.2-11.2-8.3-21.9-12.6-33.4
		C339.3,150.8,335.2,161.5,331,172.6z"/>
	<path class="st0" d="M264.1,120.3c10,0.3,17.4,3,24.1,7.9c3.1,2.3,3.8,5.5,2,8.2c-1.9,2.8-5.2,3.2-8.6,0.9
		c-6.3-4.2-12.9-6.9-20.6-4.9c-2.3,0.6-4.7,2-6.4,3.7c-4.1,4.3-2.6,10.6,2.8,12.9c6.1,2.6,12.4,4.8,18.5,7.6
		c3.3,1.5,6.6,3.2,9.4,5.5c10.6,8.5,11,22.7,0.9,31.8c-9.3,8.4-20.3,9.2-31.4,5.2c-5.4-1.9-10.3-5.5-15-9c-3.5-2.6-3.5-6.3-0.9-8.8
		c2.4-2.3,5.7-2.1,8.7,0.8c5.9,5.7,12.9,8.3,20.9,7.7c2.5-0.2,5.2-1,7.5-2.2c8.3-4.6,8.4-13.3,0.3-18.2c-2.4-1.5-5.2-2.5-7.8-3.6
		c-4.7-2-9.6-3.8-14.3-5.8c-8.8-3.8-13.1-9.9-12.9-18.4c0.2-8.6,5.5-16,14.1-19C258.6,121.2,262.2,120.7,264.1,120.3z"/>
	<path class="st0" d="M151.9,181.1c6.1-18.4,11.9-35.9,17.7-53.4c0.4-1.3,0.8-2.7,1.4-3.9c1.5-2.8,3.9-3.9,6.9-2.8
		c2.9,1,4,3.3,3.6,6.3c-0.1,0.7-0.4,1.4-0.6,2.2c-7.2,21.8-14.4,43.6-21.8,65.3c-0.7,2-2.1,4.1-3.8,5.3c-4,2.7-8.8,0.5-10.6-4.7
		c-4.1-11.7-8.1-23.5-12.2-35.2c-3.6-10.4-7.3-20.9-10.9-31.3c-1-2.9-0.8-5.5,1.9-7.4c2.2-1.5,4.7-1.6,6.6,0.3
		c1.2,1.2,2,2.9,2.6,4.5c5.8,16.6,11.6,33.2,17.3,49.8C150.6,177.4,151.1,178.8,151.9,181.1z"/>
	<path class="st0" d="M215,161c0,11.1,0,22.1,0,33.2c0,4.6-2,6.9-5.6,6.9c-3.6,0-5.7-2.5-5.7-6.9c0-22.2,0-44.5,0-66.7
		c0-4.4,2.2-7,5.7-7c3.4,0,5.6,2.6,5.6,7C215.1,138.6,215,149.8,215,161z"/>
	<path class="st0" d="M206.1,352.9c0,8,0.1,16.1,0,24.1c-0.1,16.9-11.3,28.1-28.2,28.2c-7.4,0.1-14.8,0.1-22.3,0
		c-14.8-0.3-26.4-10.1-27-24.6c-0.8-18.9-0.9-38,0.3-56.9c1.1-18.1,17.1-31.6,35.4-32.3c15.6-0.6,28.1,4.5,36.5,18
		c3.9,6.1,5.3,12.9,5.3,20.1C206.1,337.3,206.1,345.1,206.1,352.9z M192.7,344.2c-14-1.9-26.4-7.1-36.3-16.3
		c-3.6,3.8-6.5,8-10.4,10.7c-3.5,2.4-4.4,4.9-4.4,8.8c0.3,15.1,12.2,26.9,26.6,26.2C183.4,372.8,194.1,360.1,192.7,344.2z
		 M140.5,328.9c1.4-1.7,3-3.2,4.1-5.1c1.8-3.1,3-6.7,5-9.7c1.1-1.7,3.3-3.5,5.1-3.6c1.7-0.1,4.3,1.5,5.3,3.1
		c7.9,12.9,20.6,16.9,34.6,19.5c1.1-10.4-1.6-19-9.8-25c-9.5-7.1-20.2-7.3-30.7-2.6C144.6,309.7,140.2,317.9,140.5,328.9z
		 M194.4,373c-7.8,7.9-16.8,11.9-27.3,11.9c-10.5,0-19.4-4.2-26.9-11.8c-2,12.8,4.8,20.9,17.1,21c6.7,0,13.3,0,20,0
		C189.7,394,196.2,386.3,194.4,373z"/>
</g>
</svg>
