<?xml version="1.0" encoding="utf-8"?>
<!-- Generator: Adobe Illustrator 26.3.1, SVG Export Plug-In . SVG Version: 6.00 Build 0)  -->
<svg version="1.1" id="Layer_1" xmlns="http://www.w3.org/2000/svg" xmlns:xlink="http://www.w3.org/1999/xlink" x="0px" y="0px"
	 viewBox="0 0 500 500" style="enable-background:new 0 0 500 500;" xml:space="preserve">
<style type="text/css">
	.st0{fill:#8331A7;}
</style>
<g>
	<g>
		<path class="st0" d="M68.8,338.2c1.3-6.6,5.1-12,8.9-17.4c4.8-6.9,9.5-13.9,14.2-20.8c2.5-3.7,5.3-4.3,8.3-2.2
			c2.8,2,3.1,4.9,0.8,8.3c-5.9,8.7-11.8,17.3-17.7,26c-5.8,8.6-4.4,16.2,4.1,22c30.5,20.7,61.1,41.4,91.6,62.1
			c6.5,4.4,13.4,4.3,18.4-0.4c1.5-1.4,2.7-3.1,3.9-4.8c31.2-45.7,62.4-91.3,93.6-137c9.7-14.2,19.4-28.4,29.3-42.9
			c-39.2-26.6-78.2-53-117.5-79.7c-1,1.4-1.8,2.6-2.6,3.7c-28.1,41.1-56.2,82.3-84.3,123.4c-3.4,5-6.1,6.1-9.3,3.8
			c-3.2-2.3-3.1-5.1,0.4-10.1c46.2-67.6,92.5-135.1,138.3-202.9c8.9-13.1,25.2-18.3,39.4-7.3c1.2,0.9,2.4,1.7,3.6,2.5
			c5.5,3.8,11.1,7.5,16.8,11.4c2.9-2.8,5.8-5.6,8.6-8.4c11.3-11.4,26.3-11.6,37.9-0.3c26.2,25.5,52.3,51.1,78.5,76.6
			c12.1,11.9,12.4,26.6,0.6,38.6c-3.6,3.7-7.2,7.3-10.8,10.9c-3.1,3.1-6.1,3.3-8.6,0.7c-2.5-2.6-2.3-5.2,0.7-8.3
			c3.9-4,7.9-8,11.7-12c6.2-6.5,6.1-14.8-0.3-21.1c-8.6-8.5-17.2-16.9-25.9-25.4c-3.4,3.4-6.6,6.5-9.7,9.8c-0.7,0.8-1.1,2.4-0.9,3.6
			c1.2,7.2-0.8,13.5-4.8,19.3c-11.3,16.5-22.5,33-33.8,49.5c-0.8,1.2-1.6,2.4-2,3c6.5,6.9,12.8,13.6,18.6,19.7
			c7.3-6.9,14.4-13.5,21.4-20.3c2-1.9,4-3.3,6.8-2.1c3.9,1.7,4.7,6,1.5,9.3c-5.3,5.6-10.7,11-16.1,16.5
			c-50.5,51.4-100.8,102.9-151.5,154.1c-7.1,7.2-12.4,15.6-17.8,23.9c-5.2,7.9-11.1,14.4-20.6,16.7c-2.9,0-5.9,0-8.8,0
			c-3.8-1.8-7.9-3.2-11.3-5.6c-29.1-19.6-57.9-39.4-87.1-58.8c-8-5.3-14.5-11.4-16.4-21.2C68.8,342.6,68.8,340.4,68.8,338.2z
			 M333.9,106.3c-1.3-0.9-2.2-1.6-3.2-2.3c-16.4-11.1-32.8-22.3-49.3-33.4c-8.9-6.1-16.4-4.6-22.5,4.2c-14.7,21.5-29.4,43-44.1,64.5
			c-0.6,0.9-1.2,1.8-1.9,3c22,14.9,43.8,29.7,65.8,44.7C297.2,160,315.5,133.2,333.9,106.3z M330.2,221.9c0.5-0.5,0.7-0.8,0.9-1.1
			c15.4-22.6,30.9-45.2,46.3-67.9c4.8-7.1,3.2-14.9-3.8-19.8c-6.7-4.7-13.5-9.2-20.2-13.8c-3.4-2.3-6.8-4.6-10.3-7
			c-18.5,27.1-36.7,53.8-55.2,80.8C302,202.8,316,212.3,330.2,221.9z M343.3,222.6c-27,39.5-53.6,78.5-80.2,117.4
			c0.3,0.2,0.5,0.4,0.8,0.6c32.6-33.2,65.1-66.3,97.3-99.1C355.1,235.1,349.4,229,343.3,222.6z M393.5,119.7
			c-16.3-15.8-32.1-31.4-48.3-46.8c-4.2-4-10.9-4.4-15.6-1c-4.1,2.9-7.5,6.7-11.4,10.3c22.7,15.5,44.9,30.5,66.8,45.4
			C387.6,125.3,390.3,122.7,393.5,119.7z"/>
		<path class="st0" d="M264.1,226.9c-1.2,2.3-1.8,3.7-2.7,5c-31.3,46-62.7,91.9-94.1,137.8c-2.6,3.8-5.7,4.8-8.6,2.8
			c-2.9-2-3.1-5.2-0.5-9c31.4-46,62.9-92.1,94.3-138.1c1.6-2.4,3.6-4.5,6.6-3.1C261,223.2,262.4,225.3,264.1,226.9z"/>
		<path class="st0" d="M172.1,304.5c-1.5,4-2.5,8.4-4.7,12c-5.1,8.2-10.6,16-16.2,23.9c-7.6,10.7-20.3,12.8-31.2,5.2
			c-10.8-7.5-13.3-19.7-6-30.7c5.4-8.2,11-16.4,16.7-24.4c5.9-8.1,16-11.1,25.4-7.9C165.4,285.8,171.3,294.3,172.1,304.5z
			 M132.7,339c4.7,0,7.6-2.1,9.7-5.3c5.2-7.6,10.5-15.2,15.6-22.9c4-5.9,2.8-12-2.8-15.9c-5.7-4-12.3-2.9-16.3,2.8
			c-5.4,7.7-10.6,15.4-15.9,23.2c-2.5,3.7-3.2,7.6-0.8,11.7C124.8,336.7,128.5,338.9,132.7,339z"/>
		<path class="st0" d="M188.2,390.2c-5.2,0.1-8.1-3.8-6.7-7.5c0.4-0.9,0.9-1.7,1.5-2.5c21.2-31,42.4-62.1,63.7-93.1
			c1.2-1.7,3.8-3.5,5.7-3.5c4.6,0,6.4,4.9,3.5,9.2c-8.9,13.2-18,26.3-26.9,39.5c-12.3,18-24.5,36-36.9,53.9
			C190.9,388,189.1,389.3,188.2,390.2z"/>
		<path class="st0" d="M192.1,278.4c-5,0.1-7.8-3.8-6.5-7.3c0.3-0.9,0.9-1.7,1.5-2.5c13.6-19.9,27.2-39.8,40.7-59.7
			c1.8-2.6,3.7-4.6,7.2-3.2c3.5,1.4,4.7,4.8,2.7,8c-1.6,2.6-3.4,5.1-5.1,7.6c-12.1,17.7-24.1,35.4-36.3,53
			C195,276.2,193,277.5,192.1,278.4z"/>
		<path class="st0" d="M247.6,142.2c-5.3,0-8.1-4.3-6.3-8c0.5-1,1.1-1.9,1.8-2.8c8.7-12.8,17.4-25.5,26.1-38.3
			c0.6-0.9,1.2-1.9,2-2.6c2-1.9,4.2-2.4,6.6-0.9c2.6,1.5,3.2,3.9,2.3,6.6c-0.3,0.9-0.9,1.7-1.4,2.5c-9,13.3-18.1,26.6-27.2,39.8
			C250.2,140.3,248.4,141.4,247.6,142.2z"/>
		<path class="st0" d="M292.6,120.8c-1,2.1-1.5,3.4-2.3,4.6c-6.2,9.2-12.4,18.3-18.7,27.4c-2.4,3.5-5.1,4.3-8,2.3
			c-3-2-3.4-5-1.1-8.5c6.3-9.3,12.6-18.5,18.9-27.7c1.6-2.4,3.8-3.9,6.4-2.5C289.8,117.2,291,119.2,292.6,120.8z"/>
		<path class="st0" d="M344.9,133.9c3.7,0.1,19.1,10.2,19.4,12.6c0.3,1.8-0.2,4.3-1.4,5.5c-1.2,1.2-4.2,2.1-5.4,1.4
			c-5.4-3.1-10.5-6.5-15.4-10.4c-1.2-0.9-1.6-4-1-5.5C341.8,135.8,344,134.6,344.9,133.9z"/>
		<path class="st0" d="M349.3,170c-2-0.9-3.3-1.3-4.3-2c-4.1-2.7-8.1-5.4-12.1-8.2c-3.2-2.2-3.9-4.9-2.1-7.8
			c1.9-2.9,4.9-3.5,8.2-1.3c4.4,2.9,8.8,5.6,12.8,8.9c1.3,1.1,2.2,4,1.7,5.6C353.1,167.2,350.8,168.5,349.3,170z"/>
		<path class="st0" d="M332.9,193.9c-0.1,5.1-4.5,8-8,5.9c-4.9-3-9.6-6.3-14.2-9.6c-2.6-1.9-2.7-4.5-1-7.1c1.7-2.6,4.6-3.4,7.3-1.7
			c4.6,2.9,9.2,6,13.6,9.2C331.8,191.5,332.4,193.2,332.9,193.9z"/>
		<path class="st0" d="M343.6,178.5c-0.2,5-4.6,7.8-8.1,5.7c-4.9-2.9-9.6-6.2-14.2-9.6c-2.6-1.9-2.6-4.6-0.9-7.1
			c1.7-2.5,4.2-3.5,6.9-1.8c4.8,3.1,9.5,6.3,14.1,9.6C342.6,176.2,343.2,177.8,343.6,178.5z"/>
	</g>
</g>
</svg>
