<?xml version="1.0" encoding="utf-8"?>
<!-- Generator: Adobe Illustrator 26.3.1, SVG Export Plug-In . SVG Version: 6.00 Build 0)  -->
<svg version="1.1" id="Layer_1" xmlns="http://www.w3.org/2000/svg" xmlns:xlink="http://www.w3.org/1999/xlink" x="0px" y="0px"
	 viewBox="0 0 500 500" style="enable-background:new 0 0 500 500;" xml:space="preserve">
<style type="text/css">
	.st0{fill:#8331A7;}
</style>
<g>
	<path class="st0" d="M71.8,420.8c1.9-8.9,3.9-17.9,5.7-26.8c12.6-62.8,25.1-125.5,37.7-188.3c2.1-10.4,2.2-10.3,12.8-10.3
		c2.9,0,5.9,0,9.5,0c-1.5-2.5-2.6-4.5-3.7-6.4c-8.9-15.8-16.9-32-20.7-50c-8.4-38.7,20.7-73.4,60.3-71.9c34,1.3,60.4,33.7,54.8,67.2
		c-3.2,19.6-11.8,37.1-21.4,54.2c-1.2,2.1-2.4,4.1-4,6.8c1.9,0,3.3,0,4.6,0c59.2,0,118.4,0,177.6,0c6.8,0,8,0.9,9.4,7.6
		c11.8,58.9,23.6,117.8,35.4,176.7c2.7,13.7,5.5,27.3,8.2,41c1.1,5.3-1.1,8-6.4,8.2c-0.6,0-1.2,0-1.8,0c-116.5,0-233,0-349.4,0.1
		c-3.6,0-6.6-0.5-8.6-3.8C71.8,423.6,71.8,422.2,71.8,420.8z M353,362c-8.4-9.6-18.4-12.4-30-8.3c-6.4,2.2-12.5,5.3-19,7.2
		c-22.1,6.4-40.5-4.5-45.9-26.8c-0.7-3-1.7-6-2.8-8.8c-5.5-13.4-19.7-19-32.8-12.8c-6.2,2.9-12.1,6.6-18.3,9.8
		c-8.8,4.5-18,6.6-28,4.9c-15.9-2.7-27.6-12.9-30.3-27c-1.9-10.2,0.2-19.9,3.7-29.4c1.6-4.4,3.6-8.7,5.4-13.1
		c-8.3-3.7-14.5-9.1-15-18.6c-0.4-9.6,5.5-15.2,13.5-19.3c-2.7-4.1-5.2-7.9-7.8-11.6c-0.5-0.7-1.5-1.4-2.2-1.4
		c-5.6-0.1-11.2-0.1-16.9-0.1c-6.7,33.4-13.3,66.5-20,100.1c1.7,0,2.9,0,4.1,0c7,0,14.1,0,21.1,0c4.6,0,6.9,1.9,6.9,5.4
		c0,3.5-2.4,5.6-6.8,5.6c-4.9,0-9.8,0-14.7,0c-4.3,0-8.5,0-12.8,0c-3,15-5.9,29.5-8.9,44.2c23.2,0,46,0,68.8,0
		c0.7-6.7,1.5-13.2,2.2-19.7c0.3-2.7,1.7-4.9,4.3-4.9c2,0,4.4,1.3,6,2.7c0.8,0.7,0.7,2.9,0.6,4.4c-0.5,5.8-1.1,11.6-1.7,17.7
		c1.7,0,3,0,4.3,0c24.2,0,48.5,0,72.7,0c6.8,0,8.4,1.6,8.4,8.5c0,14.3,0,28.6,0,43c0,1.3,0,2.5,0,4c55.2,0,109.9,0,165.2,0
		c-6.7-33.4-13.3-66.5-19.9-99.5c-21.7,0-43,0-64.5,0c0.2,2.8,0.5,5.3,0.6,7.8c0.1,4.2-1.7,6.3-5.1,6.4c-3.3,0.1-5.5-2-5.9-5.8
		c-0.3-2.8-0.6-5.6-0.9-8.7c-1.6,0-2.9,0-4.2,0c-14.8,0-29.6,0-44.4,0c-4.3,0-6.6-2.3-6.4-5.9c0.2-3.3,2.4-5.1,6.5-5.1
		c14.4,0,28.9,0,43.3,0c1.3,0,2.5,0,4.2,0c-1.6-15.2-3.1-29.8-4.6-44.4c-21.5,0-42.4,0-63.8,0c0,1.5,0,2.8,0,4
		c0,7.2,0.1,14.3,0,21.5c-0.1,3.7-2.6,6.1-5.7,6.1c-3-0.1-5.3-2.5-5.4-6c-0.1-4.4,0-8.8,0-13.2c0-4.1,0-8.3,0-12.7
		c-1.8,0-3.1,0-4.3,0c-11.3,0-22.7,0-34,0c-4.1,0-6.6-2.1-6.7-5.4c-0.1-3.4,2.5-5.7,6.7-5.7c10.5-0.1,21,0,31.5,0c2.1,0,4.2,0,6.5,0
		c0-15,0-29.5,0-44.3c-17.5,0-34.6,0-51.8,0c-0.7,0-1.7,0.4-2.1,0.9c-2.8,3.9-5.5,8-8.2,12c2.4,1.6,4.6,2.9,6.5,4.5
		c8.6,6.9,9.7,17.5,2.4,25.8c-2.5,2.8-5.7,5.1-8.9,7c-5.5,3.2-11.7,3.9-18,3.7c-1.2,0-3.1,0.5-3.5,1.3c-5.7,10.2-9.6,21.1-9.1,33
		c0.3,6.7,2.7,12.7,8.7,16.4c8.5,5.2,17.7,7.2,27.4,3.8c4.4-1.5,8.5-3.8,12.6-5.8c5.1-2.6,10-5.7,15.2-7.9
		c16.6-6.9,36.7,1.1,43.9,17.5c2.2,4.9,3.5,10.1,5.1,15.2c4.5,13.7,14.3,19.9,28.4,16.7c6.9-1.5,13.7-4.1,20.3-6.8
		c15.2-6.2,28.4-3.3,40.2,7.8c1.7,1.6,3.4,3,4.8,4.8c1.5,1.8,3.1,2.4,5.5,2.3c7.8-0.4,15.2,0.9,21.9,5.3
		c13.9,9.3,13.2,26.8-1.7,34.5c-10.4,5.4-21.4,6.2-32.6,2.3c-5.2-1.8-9.5-4.9-12.8-9.4c-5.9-8-5-17.5,2.4-24.1
		C348,365.3,350.5,363.8,353,362z M170.3,223.5c12.7-17,24.1-34.1,33.4-52.6c5.8-11.5,10.8-23.4,13.2-36.1
		c5.9-30.9-17.9-59.2-48.7-57.7c-29.9,1.5-50.6,28.9-44.4,58.8c2.6,12.5,7.5,24.1,13.2,35.4C146.3,189.7,157.6,206.7,170.3,223.5z
		 M249.4,373.6c-25.3,0-50.1,0-75.2,0c-1.5,14.7-3,29.1-4.5,43.7c26.8,0,53.2,0,79.7,0C249.4,402.6,249.4,388.2,249.4,373.6z
		 M163,373.7c-1-0.1-1.5-0.3-2.1-0.3c-21.8,0-43.7,0-65.5-0.1c-2,0-2.6,0.7-3,2.6c-1.3,6.9-2.8,13.8-4.1,20.7
		c-1.4,6.8-2.7,13.7-4.1,20.7c25,0,49.5,0,74.2,0C160,402.7,161.5,388.3,163,373.7z M340.3,306.5c21.3,0,42.1,0,63.2,0
		c-0.1-1.3-0.1-2.3-0.3-3.3c-2.5-12.4-5.1-24.7-7.4-37.1c-0.6-3.4-1.9-4.1-5.1-4.1c-16.8,0.2-33.6,0.1-50.4,0.1c-1.4,0-2.8,0-4.6,0
		C337.3,277.2,338.8,291.7,340.3,306.5z M323.4,250.9c-1.5-14.9-3-29.4-4.5-44.1c-19.5,0-38.6,0-57.9,0c0,14.8,0,29.4,0,44.1
		C281.7,250.9,302.2,250.9,323.4,250.9z M334.5,250.8c19.7,0,38.8,0,58.2,0c-3-14.8-5.9-29.4-8.8-44c-17.9,0-35.7,0-53.8,0
		C331.5,221.6,333,236.1,334.5,250.8z M370,392.7c4.9-1.5,9.8-2.2,14-4.4c7.1-3.6,7.2-11.2,0.2-15.1c-9.3-5.1-19-5-28.3,0.1
		c-6.8,3.8-6.8,11.3,0.1,14.9C360.3,390.4,365.2,391.2,370,392.7z M160.4,229c-5.9,2-9.9,5.7-9.6,9.2c0.5,5.3,4.6,7.5,8.9,9.2
		c6.8,2.7,13.8,2.6,20.6,0.1c4.4-1.6,8.7-3.8,8.9-9.1c0.2-5.6-4.4-7.4-8.5-9.3c-0.2-0.1-0.4,0-0.9,0.1c-1.1,1.5-2.3,3.1-3.5,4.7
		c-4.1,5.7-8.3,5.6-12.4-0.2C162.8,232.2,161.6,230.6,160.4,229z"/>
	<path class="st0" d="M184.3,275.6c-0.7,7.5-1.5,15.5-2.4,23.6c-0.4,4.1-2.9,6.4-6.1,6c-3.6-0.5-5.5-3.2-5.1-7.2
		c0.8-7.9,1.7-15.8,2.6-23.7c0.5-4.7,2.8-7,6.2-6.6C182.9,268,184.6,270.6,184.3,275.6z"/>
	<path class="st0" d="M170.4,151.6c-15.4,0-27-11.4-26.9-26.5c0.1-15,11.6-26.2,26.8-26.2c15.3,0,26.7,11.3,26.7,26.3
		C197,140.3,185.6,151.6,170.4,151.6z M154.8,125.2c0,9,6.5,15.7,15.4,15.7c8.9,0,15.5-6.7,15.4-15.7c0-8.8-6.5-15.4-15.3-15.5
		C161.5,109.6,154.9,116.2,154.8,125.2z"/>
</g>
</svg>
