<?xml version="1.0" encoding="utf-8"?>
<!-- Generator: Adobe Illustrator 26.3.1, SVG Export Plug-In . SVG Version: 6.00 Build 0)  -->
<svg version="1.1" id="Layer_1" xmlns="http://www.w3.org/2000/svg" xmlns:xlink="http://www.w3.org/1999/xlink" x="0px" y="0px"
	 viewBox="0 0 500 500" style="enable-background:new 0 0 500 500;" xml:space="preserve">
<style type="text/css">
	.st0{fill:#8331A7;}
</style>
<g>
	<path class="st0" d="M141.8,452c-1-0.4-2-0.9-3-1.3c-8.1-3-13.3-10.2-13.5-18.8c-0.1-4.6-0.1-9.2,0-13.9c0-2-0.5-3-2.5-3.8
		c-11.9-4.8-18.4-14.5-18.4-27.3c0-52.2,0-104.4,0-156.5c0-1-0.1-2,0.1-3c0.7-2.9,2.5-4.6,5.5-4.6c3.1,0,4.8,1.8,5.5,4.7
		c0.3,1.2,0.1,2.5,0.1,3.7c0,33.3,0,66.7,0,100c0,1.5,0,2.9,0,4.9c1.6,0,3,0,4.3,0c10.9,0,21.7,0,32.6,0c5.7,0,9.7,2.4,11.9,7.8
		c3.5,8.4,7.2,16.7,10.7,25.1c2.8,6.5-0.4,11.1-7.5,11.1c-15.9,0-31.7,0-47.6,0c-1.3,0-2.7,0-4.8,0c0.4,4.6,0.3,9.1,1.3,13.2
		c1.7,6.5,8,11,14.7,11.5c1.5,0.1,3,0.1,4.5,0.1c75,0,150.1-0.2,225.1,0.2c14.8,0.1,23.7-8.1,21-24.9c-1.3,0-2.6,0-3.9,0
		c-15.9,0-31.7,0-47.6,0c-7.4,0-10.4-4.6-7.6-11.4c3.5-8.4,7.2-16.7,10.7-25.1c2.2-5.2,6.1-7.6,11.7-7.6c10.9,0,21.7,0,32.6,0
		c1.3,0,2.7,0,4.4,0c0-1.7,0-3,0-4.4c0-67.2,0-134.3,0-201.5c0-12.3-6.7-19-19-19c-76.3,0-152.6,0-228.8,0
		c-12.2,0-18.9,6.7-18.9,19.1c0,23,0,45.9,0,68.9c0,1.1,0.1,2.3-0.1,3.4c-0.4,3.1-2.3,4.9-5.5,5.2c-2.9,0.2-5.4-2.2-5.6-5.3
		c-0.2-3-0.1-6-0.1-9c0-12.2,0-24.4,0-36.9c-4.5,0-8.7,0-13.5,0c0,1.3,0,2.7,0,4c0,20.7,0,41.4,0,62.2c0,8.9-4.1,13-13.1,13
		c-2.2,0-4.5-0.2-6.7,0c-6.7,0.6-11.3-2.1-13.9-8.3c0-24.7,0-49.4,0-74.2c2.6-6.2,7.2-8.5,13.9-8.3c9.9,0.3,19.7,0.1,29.6,0.1
		c1.2,0,2.4,0,3.7,0c0-6.3-0.1-12,0-17.8c0.4-14.7,12.4-26.8,27.1-27.1c6.7-0.2,13.4,0,20.4,0c0-3.4,0-6.2,0-9.1
		c0.1-14,8.5-22.4,22.4-22.4c49.8,0,99.6,0,149.4,0c13.6,0,22.1,8.5,22.3,22.2c0,3,0,5.9,0,9.3c1.6,0,2.8,0,4,0
		c5.2,0,10.5-0.1,15.7,0c15.4,0.3,27.5,12.3,27.8,27.7c0.1,5.7,0,11.4,0,17.2c1.9,0,3.3,0,4.6,0c10.4,0,20.7-0.1,31.1,0
		c6.8,0.1,11.5,4.5,11.5,11.1c0.1,22.8,0.1,45.7,0,68.5c0,6.3-4.6,10.7-10.9,10.9c-3.2,0.1-6.5,0-9.7,0c-8.9,0-13-4.1-13-13
		c0-20.7,0-41.4,0-62.1c0-1.3,0-2.6,0-3.9c-4.8,0-9.1,0-13.5,0c0,1.9,0,3.5,0,5.1c0,75,0,150,0,225c0,13.2-6.3,22.8-18.4,27.7
		c-2,0.8-2.5,1.9-2.5,3.8c0.1,4.7,0.2,9.5,0,14.2c-0.5,8.8-5,14.9-13.1,18.3c-1.1,0.5-2.3,0.9-3.4,1.4c-15.2,0-30.5,0-45.7,0
		c-12.5-4.1-17.7-12.8-16.7-25.7c0.3-3.3,0-6.6,0-10c-30.1,0-59.8,0-89.7,0c0,5.5,0.1,10.7,0,16c-0.2,7-3.4,12.4-9.2,16.2
		c-2.2,1.5-4.9,2.3-7.3,3.5C172.2,452,157,452,141.8,452z M163.2,99.7c57.3,0,114.2,0,171.5,0c0-2.9,0-5.5,0-8.1
		c0-8.7-3.3-11.9-12.1-11.9c-49.2,0-98.3,0-147.5,0c-1,0-2,0-3,0c-4.9,0.3-8.5,3.6-8.9,8.5C163,91.9,163.2,95.7,163.2,99.7z
		 M136.4,416.2c0,1.6,0,2.7,0,3.8c0,3.9-0.1,7.7,0.1,11.6c0.2,5.2,3.8,9,9.1,9.1c12.7,0.1,25.5,0.1,38.2,0c4.6,0,8.6-3.3,8.9-7.6
		c0.4-5.5,0.1-11.1,0.1-16.9C173.9,416.2,155.4,416.2,136.4,416.2z M361.3,416.3c-19,0-37.5,0-56.3,0c0,5.6-0.2,10.9,0.1,16.3
		c0.2,4.5,4,8.1,8.8,8.1c12.9,0.1,25.7,0.1,38.6,0c4.7-0.1,8.5-3.6,8.8-8.1C361.5,427.2,361.3,421.8,361.3,416.3z M162.8,368.7
		c-2.8-6.4-5.5-12.5-8-18.7c-0.9-2.3-2.2-2.8-4.5-2.8c-10.5,0.1-20.9,0-31.4,0.1c-1.1,0-2.1,0.1-3.1,0.2c0,7.3,0,14.2,0,21.2
		C131.5,368.7,146.9,368.7,162.8,368.7z M335.1,368.6c15.9,0,31.4,0,46.9,0c0-7.2,0-14.1,0-21.3c-12.2,0-24.1,0-36.1,0.1
		c-0.8,0-1.9,0.7-2.2,1.4C340.8,355.2,338,361.8,335.1,368.6z M79.3,224.1c0-22.8,0-45.3,0-67.7c-3.8,0-7.3,0-10.8,0
		c0,22.7,0,45.1,0,67.7C72.2,224.1,75.6,224.1,79.3,224.1z M418.5,156.3c0,22.8,0,45.3,0,67.7c3.8,0,7.3,0,10.8,0
		c0-22.7,0-45.1,0-67.7C425.6,156.3,422.2,156.3,418.5,156.3z"/>
	<path class="st0" d="M248.9,295.4c-35.7,0-71.4,0-107.1,0c-9.9,0-15-5.1-15-15c0-40.2,0-80.4,0-120.6c0-9.9,5.1-15,15-15
		c71.4,0,142.8,0,214.2,0c9.9,0,15,5.1,15,15c0,40.2,0,80.4,0,120.6c0,9.9-5.1,15-15,15C320.3,295.4,284.6,295.4,248.9,295.4z
		 M249.3,156.1c-35.6,0-71.2,0-106.7-0.1c-3.3,0-4.6,0.8-4.6,4.4c0.1,39.8,0.1,79.6,0,119.4c0,3.6,1.2,4.4,4.6,4.4
		c70.9-0.1,141.8-0.1,212.7,0c3.7,0,4.6-1.2,4.6-4.7c-0.1-39.6-0.1-79.1,0-118.7c0-3.9-1.3-4.8-5-4.8
		C319.7,156.2,284.5,156.1,249.3,156.1z"/>
	<path class="st0" d="M191.3,329.1c4.5,10.3,9.5,19.7,12.9,29.7c2.8,8.1,7,10.6,15.6,10.3c21.8-0.8,43.7-0.3,65.5-0.2
		c2.7,0,4.1-0.6,5.3-3.3c4.7-11,9.6-21.9,14.4-32.9c0.4-1,0.8-2,1.4-3.6c-1.7,0-3,0-4.3,0c-5.7,0-11.5,0.1-17.2,0
		c-3.5-0.1-5.8-2.5-5.8-5.6c0-2.9,2.3-5.5,5.5-5.6c8.2-0.1,16.5-0.3,24.7,0.1c7.1,0.3,11,7.5,8.2,14.3c-3.6,8.5-7.4,16.9-11.1,25.3
		c-2.3,5.2-4.6,10.5-7,15.7c-2,4.5-5.4,6.6-10.3,6.6c-26.7,0-53.4,0-80.2,0c-4.9,0-8.3-2.2-10.2-6.7c-6-13.6-12-27.1-17.9-40.7
		c-3.3-7.7,1.3-14.7,9.6-14.7c22.3-0.1,44.7,0,67,0c4.1,0,6.6,2.1,6.6,5.5c0.1,3.5-2.4,5.7-6.8,5.7c-20.4,0-40.7,0-61.1,0
		C194.7,329.1,193.4,329.1,191.3,329.1z"/>
	<path class="st0" d="M248.9,133.6c-19.1,0-38.2,0-57.3,0c-1.1,0-2.3,0.1-3.4-0.1c-2.9-0.6-4.6-2.4-4.6-5.5c0-3.1,1.7-4.9,4.6-5.5
		c1.1-0.2,2.2-0.1,3.4-0.1c38.2,0,76.4,0,114.6,0c1.1,0,2.3-0.1,3.4,0.1c2.9,0.6,4.6,2.4,4.6,5.5c0,3.1-1.7,4.9-4.6,5.5
		c-1.1,0.2-2.2,0.1-3.4,0.1C287.1,133.6,268,133.6,248.9,133.6z"/>
	<path class="st0" d="M248.9,354.6c-8.2,0-16.5,0-24.7,0c-4.4,0-6.9-2.1-6.9-5.6c0-3.5,2.5-5.6,6.9-5.6c16.4,0,32.9,0,49.3,0
		c4.4,0,6.9,2.1,6.9,5.6c0,3.5-2.5,5.6-6.9,5.6C265.4,354.6,257.1,354.6,248.9,354.6z"/>
	<path class="st0" d="M163,128.2c-0.1,3-2.5,5.4-5.5,5.5c-3.1,0-5.7-2.6-5.6-5.7c0.1-3,2.5-5.4,5.5-5.5
		C160.6,122.4,163.1,125,163,128.2z"/>
	<path class="st0" d="M340.4,133.6c-3,0-5.5-2.3-5.6-5.3c-0.1-3.2,2.3-5.8,5.4-5.8c3,0,5.5,2.3,5.6,5.3
		C346,130.9,343.5,133.6,340.4,133.6z"/>
</g>
</svg>
